<svg id="Layer_1" xmlns="http://www.w3.org/2000/svg" viewBox="0 0 127.2 122.5"><style>.st0{stroke:#f15c27;stroke-width:2;stroke-miterlimit:10}.st0,.st1{fill:#fcf8f5}.st1,.st2{stroke-width:2;stroke-miterlimit:10}.st1{stroke:#818181}.st2{fill:none;stroke:#f15c27}</style><g id="mask_2_"><g id="mouth_2_"><path class="st0" d="M71.6 92.8H52.2c-1.4 0-12.6 3.8-8.2-3.2 4.5-7 4.7-9.3 6.8-9.3h22.3c2 0 2.3 2.3 6.8 9.3 4.3 6.9-6.9 3.2-8.3 3.2z"/><path class="st1" d="M97.7 109.4l-13.5 8.5c-.8.5-1.8.2-2.3-.6L73 104.6l-20.6.1-9.1 13.2c-.5.8-1.5 1.1-2.3.6l-13.8-8.7c-.8-.5-1-1.5-.5-2.3l14.2-21.1.2-.2c.1-.1.2-.2.2-.3 0 0 .1 0 .1-.1.1-.1.1-.1.2-.1 0 0 .1 0 .1-.1.1 0 .1-.1.2-.1h.1c.1 0 .1-.1.2-.1h40.6c.1 0 .2.1.2.1h.1c.4.1.8.4 1 .8L98.2 107c.5.8.3 1.9-.5 2.4z"/></g><g id="head_2_"><path class="st2" d="M56 60.4c0 1.4-1.1 2.5-2.5 2.5H31c-2 0-2.3-2.3-6.8-9.3-4.5-7 6.9-3.2 8.2-3.2h21.1c1.4 0 2.5 1.1 2.5 2.5v7.5zm14.4 0c0 1.4 1.1 2.5 2.5 2.5h22.5c2.1 0 2.3-2.3 6.8-9.3 4.5-7-6.9-3.2-8.2-3.2H72.9c-1.4 0-2.5 1.1-2.5 2.5v7.5z"/><path class="st1" d="M119.2 22.2L92 5c-1.2-.7-2.7-.3-3.5.9l-9.3 14.8h-32l-11-15.3c-.7-1.2-2.3-1.6-3.5-.8L5.6 21.7c-1.2.7-1.5 2.3-.8 3.4l21.1 31.4s.9 1.4 2 1.4h70.4c1.3 0 1.8-.8 2.1-1.4L120 25.6c.7-1.2.3-2.7-.8-3.4z"/></g></g></svg>