<svg xmlns="http://www.w3.org/2000/svg" width="1771" height="1089"><defs><filter id="a" width="200%" height="200%" x="-50%" y="-50%"><feGaussianBlur stdDeviation="26" result="SvgjsFeGaussianBlur1009Out" in="SourceGraphic"/></filter><linearGradient id="b" gradientUnits="userSpaceOnUse" x1="1437.988" y1="2561" x2="1437.988" y2="2540.71"><stop stop-color="#8f8f8f" offset="0"/><stop stop-color="#b0b0b0" offset="1"/></linearGradient><filter id="c" width="200%" height="200%" x="-50%" y="-50%"><feGaussianBlur result="SvgjsFeGaussianBlur1023Out" in="SourceGraphic"/></filter><filter id="d" width="200%" height="200%" x="-50%" y="-50%"><feGaussianBlur result="SvgjsFeGaussianBlur1028Out" in="SourceGraphic"/></filter><filter id="e" width="200%" height="200%" x="-50%" y="-50%"><feGaussianBlur stdDeviation="26" result="SvgjsFeGaussianBlur1033Out" in="SourceGraphic"/></filter><linearGradient id="f" gradientUnits="userSpaceOnUse" x1="1437.988" y1="2561" x2="1437.988" y2="2540.71"><stop stop-color="#8f8f8f" offset="0"/><stop stop-color="#b0b0b0" offset="1"/></linearGradient><filter id="g" width="200%" height="200%" x="-50%" y="-50%"><feGaussianBlur result="SvgjsFeGaussianBlur1047Out" in="SourceGraphic"/></filter></defs><path d="M761.5 1544h1353c22.09 0 45.43 23.91 45.43 46v879c0 22.09.09 60-22 60H738.5c-22.091 0-20-42.91-20-65v-870c0-22.09 20.909-50 43-50z" fill-opacity=".16" filter="url(#a)" transform="translate(-552 -1492)"/><path d="M209.5 51h1353c22.09 0 45.43 23.91 45.43 46v879c0 22.09.09 60-22 60H186.5c-22.091 0-20-42.91-20-65V101c0-22.09 20.909-50 43-50z" fill="#cdced1"/><path d="M216.643 851H1555.93c22.09 0 46.43 23.91 46.43 46v79c0 22.09-.91 52-23 52H193.643c-22.091 0-20-34.91-20-57v-70c0-22.09 20.909-50 43-50z" fill="#15181c"/><path d="M317 1019v-22h1136v22z" fill="#212121"/><path d="M213.643 57H1559.36c22.09 0 43.14 21.48 43.14 43.57V955c0 22.09-.91 40-23 40h-1383c-22.092 0-24-17.91-24-40V100.57c0-22.09 19.052-43.57 41.143-43.57z" fill="#0f0f0f"/><path d="M1 1048.71c-7.5.5 1770 0 1770 0s-25.5 20.29-65.5 20.29H66c-30 0-55.5-15.79-65-20.29z" fill="#b5b5b5"/><path d="M553 2540.71c-7.5.5 1770 0 1770 0s-25.5 20.29-65.5 20.29H618c-30 0-55.5-15.79-65-20.29z" fill="url(#b)" transform="translate(-552 -1492)"/><path d="M.5 1017v32h1770v-32z" fill="#c6c7ca"/><path d="M780.23 1037.13h210.54c13.2 0 21.06-18.8 18.73-18.8H763.17c-2.34 0 3.06 17.6 17.06 18.8z" fill="#a9a9a9"/><path d="M1439.17 1573.11c3.43 0 6.22 2.79 6.22 6.22 0 3.44-2.79 6.23-6.22 6.23a6.23 6.23 0 0 1-6.23-6.23c0-3.43 2.79-6.22 6.23-6.22z" fill="#fff" fill-opacity=".15" filter="url(#c)" transform="translate(-552 -1492)"/><path d="M887.17 80.11c3.43 0 6.22 2.79 6.22 6.22 0 3.44-2.79 6.23-6.22 6.23a6.23 6.23 0 0 1-6.23-6.23c0-3.43 2.79-6.22 6.23-6.22z" fill="#000003"/><path d="M887.39 83.89c1.72 0 3.11 1.39 3.11 3.11s-1.39 3.11-3.11 3.11-3.11-1.39-3.11-3.11 1.39-3.11 3.11-3.11z" fill="#353542"/><path d="M1439.17 1573.11c3.43 0 6.22 2.79 6.22 6.22 0 3.44-2.79 6.23-6.22 6.23a6.23 6.23 0 0 1-6.23-6.23c0-3.43 2.79-6.22 6.23-6.22z" fill="#fff" fill-opacity=".15" filter="url(#d)" transform="translate(-552 -1492)"/><path d="M887.17 80.11c3.43 0 6.22 2.79 6.22 6.22 0 3.44-2.79 6.23-6.22 6.23a6.23 6.23 0 0 1-6.23-6.23c0-3.43 2.79-6.22 6.23-6.22z" fill="#000003"/><path d="M887.39 83.89c1.72 0 3.11 1.39 3.11 3.11s-1.39 3.11-3.11 3.11-3.11-1.39-3.11-3.11 1.39-3.11 3.11-3.11z" fill="#353542"/><path d="M761.5 1544h1353c22.09 0 45.43 23.91 45.43 46v879c0 22.09.09 60-22 60H738.5c-22.091 0-20-42.91-20-65v-870c0-22.09 20.909-50 43-50z" fill-opacity=".16" filter="url(#e)" transform="translate(-552 -1492)"/><path d="M209.5 51h1353c22.09 0 45.43 23.91 45.43 46v879c0 22.09.09 60-22 60H186.5c-22.091 0-20-42.91-20-65V101c0-22.09 20.909-50 43-50z" fill="#cdced1"/><path d="M216.643 851H1555.93c22.09 0 46.43 23.91 46.43 46v79c0 22.09-.91 52-23 52H193.643c-22.091 0-20-34.91-20-57v-70c0-22.09 20.909-50 43-50z" fill="#15181c"/><path d="M317 1019v-22h1136v22z" fill="#212121"/><path d="M213.643 57H1559.36c22.09 0 43.14 21.48 43.14 43.57V955c0 22.09-.91 40-23 40h-1383c-22.092 0-24-17.91-24-40V100.57c0-22.09 19.052-43.57 41.143-43.57z" fill="#0f0f0f"/><path d="M1 1048.71c-7.5.5 1770 0 1770 0s-25.5 20.29-65.5 20.29H66c-30 0-55.5-15.79-65-20.29z" fill="#b5b5b5"/><path d="M553 2540.71c-7.5.5 1770 0 1770 0s-25.5 20.29-65.5 20.29H618c-30 0-55.5-15.79-65-20.29z" fill="url(#f)" transform="translate(-552 -1492)"/><path d="M.5 1017v32h1770v-32z" fill="#c6c7ca"/><path d="M780.23 1037.13h210.54c13.2 0 21.06-18.8 18.73-18.8H763.17c-2.34 0 3.06 17.6 17.06 18.8z" fill="#a9a9a9"/><path d="M1439.17 1573.11c3.43 0 6.22 2.79 6.22 6.22 0 3.44-2.79 6.23-6.22 6.23a6.23 6.23 0 0 1-6.23-6.23c0-3.43 2.79-6.22 6.23-6.22z" fill="#fff" fill-opacity=".15" filter="url(#g)" transform="translate(-552 -1492)"/><path d="M887.17 80.11c3.43 0 6.22 2.79 6.22 6.22 0 3.44-2.79 6.23-6.22 6.23a6.23 6.23 0 0 1-6.23-6.23c0-3.43 2.79-6.22 6.23-6.22z" fill="#000003"/><path d="M887.39 83.89c1.72 0 3.11 1.39 3.11 3.11s-1.39 3.11-3.11 3.11-3.11-1.39-3.11-3.11 1.39-3.11 3.11-3.11z" fill="#353542"/></svg>