<svg xmlns="http://www.w3.org/2000/svg" width="867" height="1285"><defs><linearGradient id="a" gradientUnits="userSpaceOnUse" x1="1445.5" y1="4449" x2="1445.5" y2="3164"><stop stop-color="#191919" offset="0"/><stop stop-color="#262626" offset="1"/></linearGradient><filter id="b" width="200%" height="200%" x="-50%" y="-50%"><feGaussianBlur result="SvgjsFeGaussianBlur1181Out" in="SourceGraphic"/></filter><linearGradient id="c" gradientUnits="userSpaceOnUse" x1="1445.5" y1="4431.646" x2="1445.5" y2="4368.646"><stop stop-opacity=".47" stop-color="#353434" offset="0"/><stop stop-opacity=".47" stop-color="#1d1d1d" offset="1"/></linearGradient><filter id="d" width="200%" height="200%" x="-50%" y="-50%"><feGaussianBlur result="SvgjsFeGaussianBlur1191Out" in="SourceGraphic"/></filter><linearGradient id="e" gradientUnits="userSpaceOnUse" x1="1445.5" y1="4431.646" x2="1445.5" y2="4368.646"><stop stop-opacity=".47" stop-color="#353434" offset="0"/><stop stop-opacity=".47" stop-color="#1d1d1d" offset="1"/></linearGradient><linearGradient id="f" gradientUnits="userSpaceOnUse" x1="1445.5" y1="4449" x2="1445.5" y2="3164"><stop stop-color="#191919" offset="0"/><stop stop-color="#262626" offset="1"/></linearGradient><filter id="g" width="200%" height="200%" x="-50%" y="-50%"><feGaussianBlur result="SvgjsFeGaussianBlur1210Out" in="SourceGraphic"/></filter><linearGradient id="h" gradientUnits="userSpaceOnUse" x1="1445.5" y1="4431.646" x2="1445.5" y2="4368.646"><stop stop-opacity=".47" stop-color="#353434" offset="0"/><stop stop-opacity=".47" stop-color="#1d1d1d" offset="1"/></linearGradient><filter id="i" width="200%" height="200%" x="-50%" y="-50%"><feGaussianBlur result="SvgjsFeGaussianBlur1220Out" in="SourceGraphic"/></filter><linearGradient id="j" gradientUnits="userSpaceOnUse" x1="1445.597" y1="3242.548" x2="1445.597" y2="3225.548"><stop stop-opacity=".06" stop-color="#fff" offset="0"/><stop stop-opacity=".06" offset="1"/></linearGradient><filter id="k" width="200%" height="200%" x="-50%" y="-50%"><feGaussianBlur result="SvgjsFeGaussianBlur1231Out" in="SourceGraphic"/></filter><linearGradient id="l" gradientUnits="userSpaceOnUse" x1="1445.597" y1="3242.548" x2="1445.597" y2="3225.548"><stop stop-opacity=".06" stop-color="#fff" offset="0"/><stop stop-opacity=".06" offset="1"/></linearGradient></defs><path d="M68.21 0h730.58C836.46 0 867 30.49 867 68.1v1148.8c0 37.61-30.54 68.1-68.21 68.1H68.21C30.54 1285 0 1254.51 0 1216.9V68.1C0 30.49 30.54 0 68.21 0z" fill="#1d1d1d"/><path d="M1080.21 3164h730.58c37.67 0 68.21 30.49 68.21 68.1v1148.8c0 37.61-30.54 68.1-68.21 68.1h-730.58c-37.67 0-68.21-30.49-68.21-68.1V3232.1c0-37.61 30.54-68.1 68.21-68.1z" fill="url(#a)" transform="translate(-1012 -3164)"/><path d="M71 6h726c35.2 0 63.02 28.81 63.02 63.97v1143.68c0 35.16-27.82 63.35-63.02 63.35H70c-35.2 0-63.98-28.19-63.98-63.35V69.97C6.02 34.81 35.8 6 71 6z" fill="#1d1d1d"/><path d="M1083 3170h726c35.2 0 63.02 28.81 63.02 63.97v1143.68c0 35.16-27.82 63.35-63.02 63.35h-727c-35.2 0-63.98-28.19-63.98-63.35V3233.97c0-35.16 29.78-63.97 64.98-63.97z" fill-opacity="0" fill="#fff" stroke-dasharray="0" stroke-linejoin="round" stroke-linecap="round" stroke="#0f0f0f" stroke-miterlimit="50" stroke-width="2" clip-path="url(&amp;quot;#b&amp;quot;)" transform="translate(-1012 -3164)"/><path d="M1445.5 4349c17.4 0 31.5 14.1 31.5 31.5s-14.1 31.5-31.5 31.5-31.5-14.1-31.5-31.5 14.1-31.5 31.5-31.5z" fill="#fff" fill-opacity=".04" filter="url(#b)" transform="translate(-1012 -3164)"/><path d="M433.5 1184c17.4 0 31.5 14.1 31.5 31.5s-14.1 31.5-31.5 31.5-31.5-14.1-31.5-31.5 14.1-31.5 31.5-31.5z" fill="#151515"/><path d="M433.5 1184c17.4 0 31.5 14.1 31.5 31.5s-14.1 31.5-31.5 31.5-31.5-14.1-31.5-31.5 14.1-31.5 31.5-31.5z" fill="#151515"/><path d="M1445.5 4348c17.4 0 31.5 14.1 31.5 31.5s-14.1 31.5-31.5 31.5-31.5-14.1-31.5-31.5 14.1-31.5 31.5-31.5z" fill="url(#c)" transform="translate(-1012 -3164)"/><path d="M428.17 1204.38h11.58c3.2 0 5.79 2.6 5.79 5.79v11.58c0 3.2-2.59 5.79-5.79 5.79h-11.58c-3.19 0-5.79-2.59-5.79-5.79v-11.58a5.8 5.8 0 0 1 5.79-5.79zm-3.47 5.79v11.58c0 1.92 1.55 3.48 3.47 3.48h11.58c1.92 0 3.48-1.56 3.48-3.48v-11.58c0-1.92-1.56-3.47-3.48-3.47h-11.58c-1.92 0-3.47 1.55-3.47 3.47z" fill="#fafafa"/><path d="M1445.5 4349c17.4 0 31.5 14.1 31.5 31.5s-14.1 31.5-31.5 31.5-31.5-14.1-31.5-31.5 14.1-31.5 31.5-31.5z" fill="#fff" fill-opacity=".04" filter="url(#d)" transform="translate(-1012 -3164)"/><path d="M433.5 1184c17.4 0 31.5 14.1 31.5 31.5s-14.1 31.5-31.5 31.5-31.5-14.1-31.5-31.5 14.1-31.5 31.5-31.5z" fill="#151515"/><path d="M433.5 1184c17.4 0 31.5 14.1 31.5 31.5s-14.1 31.5-31.5 31.5-31.5-14.1-31.5-31.5 14.1-31.5 31.5-31.5z" fill="#151515"/><path d="M1445.5 4348c17.4 0 31.5 14.1 31.5 31.5s-14.1 31.5-31.5 31.5-31.5-14.1-31.5-31.5 14.1-31.5 31.5-31.5z" fill="url(#e)" transform="translate(-1012 -3164)"/><path d="M428.17 1204.38h11.58c3.2 0 5.79 2.6 5.79 5.79v11.58c0 3.2-2.59 5.79-5.79 5.79h-11.58c-3.19 0-5.79-2.59-5.79-5.79v-11.58a5.8 5.8 0 0 1 5.79-5.79zm-3.47 5.79v11.58c0 1.92 1.55 3.48 3.47 3.48h11.58c1.92 0 3.48-1.56 3.48-3.48v-11.58c0-1.92-1.56-3.47-3.48-3.47h-11.58c-1.92 0-3.47 1.55-3.47 3.47z" fill="#fafafa"/><path d="M68.21 0h730.58C836.46 0 867 30.49 867 68.1v1148.8c0 37.61-30.54 68.1-68.21 68.1H68.21C30.54 1285 0 1254.51 0 1216.9V68.1C0 30.49 30.54 0 68.21 0z" fill="#1d1d1d"/><path d="M1080.21 3164h730.58c37.67 0 68.21 30.49 68.21 68.1v1148.8c0 37.61-30.54 68.1-68.21 68.1h-730.58c-37.67 0-68.21-30.49-68.21-68.1V3232.1c0-37.61 30.54-68.1 68.21-68.1z" fill="url(#f)" transform="translate(-1012 -3164)"/><path d="M71 6h726c35.2 0 63.02 28.81 63.02 63.97v1143.68c0 35.16-27.82 63.35-63.02 63.35H70c-35.2 0-63.98-28.19-63.98-63.35V69.97C6.02 34.81 35.8 6 71 6z" fill="#1d1d1d"/><path d="M1083 3170h726c35.2 0 63.02 28.81 63.02 63.97v1143.68c0 35.16-27.82 63.35-63.02 63.35h-727c-35.2 0-63.98-28.19-63.98-63.35V3233.97c0-35.16 29.78-63.97 64.98-63.97z" fill-opacity="0" fill="#fff" stroke-dasharray="0" stroke-linejoin="round" stroke-linecap="round" stroke="#0f0f0f" stroke-miterlimit="50" stroke-width="2" clip-path="url(&amp;quot;#h&amp;quot;)" transform="translate(-1012 -3164)"/><path d="M1445.5 4349c17.4 0 31.5 14.1 31.5 31.5s-14.1 31.5-31.5 31.5-31.5-14.1-31.5-31.5 14.1-31.5 31.5-31.5z" fill="#fff" fill-opacity=".04" filter="url(#g)" transform="translate(-1012 -3164)"/><path d="M433.5 1184c17.4 0 31.5 14.1 31.5 31.5s-14.1 31.5-31.5 31.5-31.5-14.1-31.5-31.5 14.1-31.5 31.5-31.5z" fill="#151515"/><path d="M433.5 1184c17.4 0 31.5 14.1 31.5 31.5s-14.1 31.5-31.5 31.5-31.5-14.1-31.5-31.5 14.1-31.5 31.5-31.5z" fill="#151515"/><path d="M1445.5 4348c17.4 0 31.5 14.1 31.5 31.5s-14.1 31.5-31.5 31.5-31.5-14.1-31.5-31.5 14.1-31.5 31.5-31.5z" fill="url(#h)" transform="translate(-1012 -3164)"/><path d="M428.17 1204.38h11.58c3.2 0 5.79 2.6 5.79 5.79v11.58c0 3.2-2.59 5.79-5.79 5.79h-11.58c-3.19 0-5.79-2.59-5.79-5.79v-11.58a5.8 5.8 0 0 1 5.79-5.79zm-3.47 5.79v11.58c0 1.92 1.55 3.48 3.47 3.48h11.58c1.92 0 3.48-1.56 3.48-3.48v-11.58c0-1.92-1.56-3.47-3.48-3.47h-11.58c-1.92 0-3.47 1.55-3.47 3.47z" fill="#fafafa"/><path d="M1454 3230.5c0 4.69-3.81 8.5-8.5 8.5-4.7 0-8.51-3.81-8.51-8.5 0-4.69 3.81-8.5 8.51-8.5 4.69 0 8.5 3.81 8.5 8.5z" fill="#5f5f5f" fill-opacity=".15" filter="url(#i)" transform="translate(-1012 -3164)"/><path d="M442 65.5c0 4.69-3.81 8.5-8.5 8.5-4.7 0-8.51-3.81-8.51-8.5 0-4.69 3.81-8.5 8.51-8.5 4.69 0 8.5 3.81 8.5 8.5z" fill="#181819"/><path d="M442 65.5c0 4.69-3.81 8.5-8.5 8.5-4.7 0-8.51-3.81-8.51-8.5 0-4.69 3.81-8.5 8.51-8.5 4.69 0 8.5 3.81 8.5 8.5z" fill="#181819"/><path d="M1454 3229.5c0 4.69-3.81 8.5-8.5 8.5-4.7 0-8.51-3.81-8.51-8.5 0-4.69 3.81-8.5 8.51-8.5 4.69 0 8.5 3.81 8.5 8.5z" fill="url(#j)" transform="translate(-1012 -3164)"/><path d="M437.79 65.5a4.131 4.131 0 0 1-8.26 0 4.131 4.131 0 0 1 8.26 0z" fill="#353542"/><path d="M435 65.5c0 .83-.67 1.5-1.5 1.5s-1.5-.67-1.5-1.5.67-1.5 1.5-1.5 1.5.67 1.5 1.5z" fill="#1e1e20"/><path d="M1454 3230.5c0 4.69-3.81 8.5-8.5 8.5-4.7 0-8.51-3.81-8.51-8.5 0-4.69 3.81-8.5 8.51-8.5 4.69 0 8.5 3.81 8.5 8.5z" fill="#5f5f5f" fill-opacity=".15" filter="url(#k)" transform="translate(-1012 -3164)"/><path d="M442 65.5c0 4.69-3.81 8.5-8.5 8.5-4.7 0-8.51-3.81-8.51-8.5 0-4.69 3.81-8.5 8.51-8.5 4.69 0 8.5 3.81 8.5 8.5z" fill="#181819"/><path d="M442 65.5c0 4.69-3.81 8.5-8.5 8.5-4.7 0-8.51-3.81-8.51-8.5 0-4.69 3.81-8.5 8.51-8.5 4.69 0 8.5 3.81 8.5 8.5z" fill="#181819"/><path d="M1454 3229.5c0 4.69-3.81 8.5-8.5 8.5-4.7 0-8.51-3.81-8.51-8.5 0-4.69 3.81-8.5 8.51-8.5 4.69 0 8.5 3.81 8.5 8.5z" fill="url(#l)" transform="translate(-1012 -3164)"/><path d="M437.79 65.5a4.131 4.131 0 0 1-8.26 0 4.131 4.131 0 0 1 8.26 0z" fill="#353542"/><path d="M435 65.5c0 .83-.67 1.5-1.5 1.5s-1.5-.67-1.5-1.5.67-1.5 1.5-1.5 1.5.67 1.5 1.5z" fill="#1e1e20"/></svg>