<svg id="SvgjsSvg1000" xmlns="http://www.w3.org/2000/svg" version="1.1" xmlns:xlink="http://www.w3.org/1999/xlink" xmlns:svgjs="http://svgjs.com/svgjs" width="45" height="37"><defs id="SvgjsDefs1001"></defs><path id="SvgjsPath1007" d="M549.75 69.4L587.25 69.4C589.322 69.4 591 67.74340000000001 591 65.7C591 63.656600000000005 589.322 62 587.25 62L549.75 62C547.679 62 546 63.6566 546 65.7C546 67.74340000000001 547.679 69.4 549.75 69.4ZM587.25 76.8L549.75 76.8C547.679 76.8 546 78.4566 546 80.5C546 82.5439 547.679 84.2 549.75 84.2L587.25 84.2C589.322 84.2 591 82.54390000000001 591 80.5C591 78.4566 589.322 76.8 587.25 76.8ZM587.25 91.6L549.75 91.6C547.679 91.6 546 93.25609999999999 546 95.3C546 97.34389999999999 547.679 99 549.75 99L587.25 99C589.322 99 591 97.3439 591 95.3C591 93.2561 589.322 91.6 587.25 91.6Z " fill="#000000" transform="matrix(1,0,0,1,-546,-62)"></path></svg>