<?xml version="1.0" encoding="utf-8"?>
<!-- Generator: Adobe Illustrator 19.1.0, SVG Export Plug-In . SVG Version: 6.00 Build 0)  -->
<svg version="1.1" id="Layer_1" xmlns="http://www.w3.org/2000/svg" xmlns:xlink="http://www.w3.org/1999/xlink" x="0px" y="0px"
	 viewBox="0 0 127.2 122.5" style="enable-background:new 0 0 127.2 122.5;" xml:space="preserve">
<style type="text/css">
	.st0{fill:#FCF8F5;stroke:#F15C27;stroke-width:2;stroke-miterlimit:10;}
	.st1{fill:#FCF8F5;stroke:#818181;stroke-width:2;stroke-miterlimit:10;}
	.st2{fill:none;stroke:#F15C27;stroke-width:2;stroke-miterlimit:10;}
</style>
<g id="mask_2_">
	<g id="mouth_2_">
		<path class="st0" d="M71.6,92.8h-7.4h-6.3h-5.7c-1.4,0-12.6,3.8-8.2-3.2c4.5-7,4.7-9.3,6.8-9.3c1.1,0,3.9,0,7.1,0
			c6.6,0,6.3,0,6.3,0c3.3,0,7.8,0,8.9,0c2,0,2.3,2.3,6.8,9.3C84.2,96.5,73,92.8,71.6,92.8z"/>
		<path class="st1" d="M97.7,109.4l-13.5,8.5c-0.8,0.5-1.8,0.2-2.3-0.6l-8.9-12.7l-20.6,0.1l-9.1,13.2c-0.5,0.8-1.5,1.1-2.3,0.6
			l-13.8-8.7c-0.8-0.5-1-1.5-0.5-2.3l14.2-21.1c0,0,0,0,0,0c0,0,0,0,0,0c0.1-0.1,0.1-0.1,0.2-0.2c0,0,0,0,0,0
			c0.1-0.1,0.2-0.2,0.2-0.3c0,0,0.1,0,0.1-0.1c0.1-0.1,0.1-0.1,0.2-0.1c0,0,0.1,0,0.1-0.1c0.1,0,0.1-0.1,0.2-0.1c0,0,0.1,0,0.1,0
			c0.1,0,0.1-0.1,0.2-0.1c0,0,0,0,0,0h40.5c0,0,0.1,0,0.1,0c0.1,0,0.2,0.1,0.2,0.1c0,0,0,0,0.1,0c0.4,0.1,0.8,0.4,1,0.8L98.2,107
			C98.7,107.8,98.5,108.9,97.7,109.4z"/>
	</g>
	<g id="head_2_">
		<g>
			<path class="st2" d="M56,60.4c0,1.4-1.1,2.5-2.5,2.5c0,0-19.2,0-22.5,0c-2,0-2.3-2.3-6.8-9.3c-4.5-7,6.9-3.2,8.2-3.2h21.1
				c1.4,0,2.5,1.1,2.5,2.5V60.4z"/>
			<path class="st2" d="M70.4,60.4c0,1.4,1.1,2.5,2.5,2.5c0,0,19.2,0,22.5,0c2.1,0,2.3-2.3,6.8-9.3c4.5-7-6.9-3.2-8.2-3.2H72.9
				c-1.4,0-2.5,1.1-2.5,2.5V60.4z"/>
		</g>
		<path class="st1" d="M119.2,22.2L92,5c-1.2-0.7-2.7-0.3-3.5,0.9l-9.3,14.8h-32L36.2,5.4c-0.7-1.2-2.3-1.6-3.5-0.8L5.6,21.7
			c-1.2,0.7-1.5,2.3-0.8,3.4l21.1,31.4c0,0,0.9,1.4,2,1.4c0,0,0.1,0,0.1,0c0,0,68.8,0,70.3,0c1.3,0,1.8-0.8,2.1-1.4L120,25.6
			C120.7,24.4,120.3,22.9,119.2,22.2z"/>
	</g>
</g>
</svg>
