<svg id="SvgjsSvg1000" xmlns="http://www.w3.org/2000/svg" version="1.1" xmlns:xlink="http://www.w3.org/1999/xlink" xmlns:svgjs="http://svgjs.com/svgjs" width="1771" height="1089"><defs id="SvgjsDefs1001"><filter id="SvgjsFilter1008" width="200%" height="200%" x="-50%" y="-50%"><feGaussianBlur id="SvgjsFeGaussianBlur1009" stdDeviation="26 " result="SvgjsFeGaussianBlur1009Out" in="SourceGraphic"></feGaussianBlur></filter><linearGradient id="SvgjsLinearGradient1016" gradientUnits="userSpaceOnUse" x1="1437.988166204986" y1="2561" x2="1437.988166204986" y2="2540.71"><stop id="SvgjsStop1017" stop-opacity="1" stop-color="#8f8f8f" offset="0"></stop><stop id="SvgjsStop1018" stop-opacity="1" stop-color="#b0b0b0" offset="1"></stop></linearGradient><filter id="SvgjsFilter1022" width="200%" height="200%" x="-50%" y="-50%"><feGaussianBlur id="SvgjsFeGaussianBlur1023" stdDeviation="0 " result="SvgjsFeGaussianBlur1023Out" in="SourceGraphic"></feGaussianBlur></filter><filter id="SvgjsFilter1027" width="200%" height="200%" x="-50%" y="-50%"><feGaussianBlur id="SvgjsFeGaussianBlur1028" stdDeviation="0 " result="SvgjsFeGaussianBlur1028Out" in="SourceGraphic"></feGaussianBlur></filter><filter id="SvgjsFilter1032" width="200%" height="200%" x="-50%" y="-50%"><feGaussianBlur id="SvgjsFeGaussianBlur1033" stdDeviation="26 " result="SvgjsFeGaussianBlur1033Out" in="SourceGraphic"></feGaussianBlur></filter><linearGradient id="SvgjsLinearGradient1040" gradientUnits="userSpaceOnUse" x1="1437.988166204986" y1="2561" x2="1437.988166204986" y2="2540.71"><stop id="SvgjsStop1041" stop-opacity="1" stop-color="#8f8f8f" offset="0"></stop><stop id="SvgjsStop1042" stop-opacity="1" stop-color="#b0b0b0" offset="1"></stop></linearGradient><filter id="SvgjsFilter1046" width="200%" height="200%" x="-50%" y="-50%"><feGaussianBlur id="SvgjsFeGaussianBlur1047" stdDeviation="0 " result="SvgjsFeGaussianBlur1047Out" in="SourceGraphic"></feGaussianBlur></filter></defs><path id="SvgjsPath1007" d="M761.5 1544L2114.5 1544C2136.59 1544 2159.93 1567.91 2159.93 1590L2159.93 2469C2159.93 2491.09 2160.02 2529 2137.93 2529L738.4999999999998 2529C716.4089999999998 2529 718.4999999999998 2486.09 718.4999999999998 2464L718.4999999999998 1594C718.4999999999998 1571.91 739.4089999999998 1544 761.4999999999998 1544Z " fill="#000000" fill-opacity="0.16" filter="url(#SvgjsFilter1008)" transform="matrix(1,0,0,1,-552,-1492)"></path><path id="SvgjsPath1010" d="M761.5 1543L2114.5 1543C2136.59 1543 2159.93 1566.91 2159.93 1589L2159.93 2468C2159.93 2490.09 2160.02 2528 2137.93 2528L738.4999999999998 2528C716.4089999999998 2528 718.4999999999998 2485.09 718.4999999999998 2463L718.4999999999998 1593C718.4999999999998 1570.91 739.4089999999998 1543 761.4999999999998 1543Z " fill="#cdced1" transform="matrix(1,0,0,1,-552,-1492)"></path><path id="SvgjsPath1011" d="M768.643 2343L2107.9300000000003 2343C2130.0200000000004 2343 2154.36 2366.91 2154.36 2389L2154.36 2468C2154.36 2490.09 2153.4500000000003 2520 2131.36 2520L745.643 2520C723.552 2520 725.643 2485.09 725.643 2463L725.643 2393C725.643 2370.91 746.552 2343 768.643 2343Z " fill="#15181c" transform="matrix(1,0,0,1,-552,-1492)"></path><path id="SvgjsPath1012" d="M869 2511L869 2489L2005 2489L2005 2511Z " fill="#212121" transform="matrix(1,0,0,1,-552,-1492)"></path><path id="SvgjsPath1013" d="M765.643 1549L2111.36 1549C2133.4500000000003 1549 2154.5 1570.48 2154.5 1592.57L2154.5 2447C2154.5 2469.09 2153.59 2487 2131.5 2487L748.5 2487C726.408 2487 724.5 2469.09 724.5 2447L724.5 1592.5700000000002C724.5 1570.4800000000002 743.552 1549.0000000000002 765.643 1549.0000000000002Z " fill="#0f0f0f" transform="matrix(1,0,0,1,-552,-1492)"></path><path id="SvgjsPath1014" d="M553 2540.71C545.5 2541.21 2323 2540.71 2323 2540.71C2323 2540.71 2297.5 2561 2257.5 2561C2217.5 2561 648 2561 618 2561C588 2561 562.5 2545.21 553 2540.71Z " fill="#b5b5b5" transform="matrix(1,0,0,1,-552,-1492)"></path><path id="SvgjsPath1015" d="M553 2540.71C545.5 2541.21 2323 2540.71 2323 2540.71C2323 2540.71 2297.5 2561 2257.5 2561C2217.5 2561 648 2561 618 2561C588 2561 562.5 2545.21 553 2540.71Z " fill="url(#SvgjsLinearGradient1016)" transform="matrix(1,0,0,1,-552,-1492)"></path><path id="SvgjsPath1019" d="M552.5 2509L552.5 2541L2322.5 2541L2322.5 2509Z " fill="#c6c7ca" transform="matrix(1,0,0,1,-552,-1492)"></path><path id="SvgjsPath1020" d="M1332.23 2529.13C1340.23 2529.13 1529.57 2529.13 1542.77 2529.13C1555.97 2529.13 1563.83 2510.33 1561.5 2510.33C1559.17 2510.33 1317.5 2510.33 1315.17 2510.33C1312.8300000000002 2510.33 1318.23 2527.93 1332.23 2529.13Z " fill="#a9a9a9" transform="matrix(1,0,0,1,-552,-1492)"></path><path id="SvgjsPath1021" d="M1439.17 1573.11C1442.6000000000001 1573.11 1445.39 1575.8999999999999 1445.39 1579.33C1445.39 1582.77 1442.6000000000001 1585.56 1439.17 1585.56C1435.73 1585.56 1432.94 1582.77 1432.94 1579.33C1432.94 1575.8999999999999 1435.73 1573.11 1439.17 1573.11Z " fill="#ffffff" fill-opacity="0.15" filter="url(#SvgjsFilter1022)" transform="matrix(1,0,0,1,-552,-1492)"></path><path id="SvgjsPath1024" d="M1439.17 1572.11C1442.6000000000001 1572.11 1445.39 1574.8999999999999 1445.39 1578.33C1445.39 1581.77 1442.6000000000001 1584.56 1439.17 1584.56C1435.73 1584.56 1432.94 1581.77 1432.94 1578.33C1432.94 1574.8999999999999 1435.73 1572.11 1439.17 1572.11Z " fill="#000003" transform="matrix(1,0,0,1,-552,-1492)"></path><path id="SvgjsPath1025" d="M1439.39 1575.89C1441.1100000000001 1575.89 1442.5 1577.2800000000002 1442.5 1579C1442.5 1580.72 1441.11 1582.11 1439.39 1582.11C1437.67 1582.11 1436.2800000000002 1580.7199999999998 1436.2800000000002 1579C1436.2800000000002 1577.28 1437.6700000000003 1575.89 1439.39 1575.89Z " fill="#353542" transform="matrix(1,0,0,1,-552,-1492)"></path><path id="SvgjsPath1026" d="M1439.17 1573.11C1442.6000000000001 1573.11 1445.39 1575.8999999999999 1445.39 1579.33C1445.39 1582.77 1442.6000000000001 1585.56 1439.17 1585.56C1435.73 1585.56 1432.94 1582.77 1432.94 1579.33C1432.94 1575.8999999999999 1435.73 1573.11 1439.17 1573.11Z " fill="#ffffff" fill-opacity="0.15" filter="url(#SvgjsFilter1027)" transform="matrix(1,0,0,1,-552,-1492)"></path><path id="SvgjsPath1029" d="M1439.17 1572.11C1442.6000000000001 1572.11 1445.39 1574.8999999999999 1445.39 1578.33C1445.39 1581.77 1442.6000000000001 1584.56 1439.17 1584.56C1435.73 1584.56 1432.94 1581.77 1432.94 1578.33C1432.94 1574.8999999999999 1435.73 1572.11 1439.17 1572.11Z " fill="#000003" transform="matrix(1,0,0,1,-552,-1492)"></path><path id="SvgjsPath1030" d="M1439.39 1575.89C1441.1100000000001 1575.89 1442.5 1577.2800000000002 1442.5 1579C1442.5 1580.72 1441.11 1582.11 1439.39 1582.11C1437.67 1582.11 1436.2800000000002 1580.7199999999998 1436.2800000000002 1579C1436.2800000000002 1577.28 1437.6700000000003 1575.89 1439.39 1575.89Z " fill="#353542" transform="matrix(1,0,0,1,-552,-1492)"></path><path id="SvgjsPath1031" d="M761.5 1544L2114.5 1544C2136.59 1544 2159.93 1567.91 2159.93 1590L2159.93 2469C2159.93 2491.09 2160.02 2529 2137.93 2529L738.4999999999998 2529C716.4089999999998 2529 718.4999999999998 2486.09 718.4999999999998 2464L718.4999999999998 1594C718.4999999999998 1571.91 739.4089999999998 1544 761.4999999999998 1544Z " fill="#000000" fill-opacity="0.16" filter="url(#SvgjsFilter1032)" transform="matrix(1,0,0,1,-552,-1492)"></path><path id="SvgjsPath1034" d="M761.5 1543L2114.5 1543C2136.59 1543 2159.93 1566.91 2159.93 1589L2159.93 2468C2159.93 2490.09 2160.02 2528 2137.93 2528L738.4999999999998 2528C716.4089999999998 2528 718.4999999999998 2485.09 718.4999999999998 2463L718.4999999999998 1593C718.4999999999998 1570.91 739.4089999999998 1543 761.4999999999998 1543Z " fill="#cdced1" transform="matrix(1,0,0,1,-552,-1492)"></path><path id="SvgjsPath1035" d="M768.643 2343L2107.9300000000003 2343C2130.0200000000004 2343 2154.36 2366.91 2154.36 2389L2154.36 2468C2154.36 2490.09 2153.4500000000003 2520 2131.36 2520L745.643 2520C723.552 2520 725.643 2485.09 725.643 2463L725.643 2393C725.643 2370.91 746.552 2343 768.643 2343Z " fill="#15181c" transform="matrix(1,0,0,1,-552,-1492)"></path><path id="SvgjsPath1036" d="M869 2511L869 2489L2005 2489L2005 2511Z " fill="#212121" transform="matrix(1,0,0,1,-552,-1492)"></path><path id="SvgjsPath1037" d="M765.643 1549L2111.36 1549C2133.4500000000003 1549 2154.5 1570.48 2154.5 1592.57L2154.5 2447C2154.5 2469.09 2153.59 2487 2131.5 2487L748.5 2487C726.408 2487 724.5 2469.09 724.5 2447L724.5 1592.5700000000002C724.5 1570.4800000000002 743.552 1549.0000000000002 765.643 1549.0000000000002Z " fill="#0f0f0f" transform="matrix(1,0,0,1,-552,-1492)"></path><path id="SvgjsPath1038" d="M553 2540.71C545.5 2541.21 2323 2540.71 2323 2540.71C2323 2540.71 2297.5 2561 2257.5 2561C2217.5 2561 648 2561 618 2561C588 2561 562.5 2545.21 553 2540.71Z " fill="#b5b5b5" transform="matrix(1,0,0,1,-552,-1492)"></path><path id="SvgjsPath1039" d="M553 2540.71C545.5 2541.21 2323 2540.71 2323 2540.71C2323 2540.71 2297.5 2561 2257.5 2561C2217.5 2561 648 2561 618 2561C588 2561 562.5 2545.21 553 2540.71Z " fill="url(#SvgjsLinearGradient1040)" transform="matrix(1,0,0,1,-552,-1492)"></path><path id="SvgjsPath1043" d="M552.5 2509L552.5 2541L2322.5 2541L2322.5 2509Z " fill="#c6c7ca" transform="matrix(1,0,0,1,-552,-1492)"></path><path id="SvgjsPath1044" d="M1332.23 2529.13C1340.23 2529.13 1529.57 2529.13 1542.77 2529.13C1555.97 2529.13 1563.83 2510.33 1561.5 2510.33C1559.17 2510.33 1317.5 2510.33 1315.17 2510.33C1312.8300000000002 2510.33 1318.23 2527.93 1332.23 2529.13Z " fill="#a9a9a9" transform="matrix(1,0,0,1,-552,-1492)"></path><path id="SvgjsPath1045" d="M1439.17 1573.11C1442.6000000000001 1573.11 1445.39 1575.8999999999999 1445.39 1579.33C1445.39 1582.77 1442.6000000000001 1585.56 1439.17 1585.56C1435.73 1585.56 1432.94 1582.77 1432.94 1579.33C1432.94 1575.8999999999999 1435.73 1573.11 1439.17 1573.11Z " fill="#ffffff" fill-opacity="0.15" filter="url(#SvgjsFilter1046)" transform="matrix(1,0,0,1,-552,-1492)"></path><path id="SvgjsPath1048" d="M1439.17 1572.11C1442.6000000000001 1572.11 1445.39 1574.8999999999999 1445.39 1578.33C1445.39 1581.77 1442.6000000000001 1584.56 1439.17 1584.56C1435.73 1584.56 1432.94 1581.77 1432.94 1578.33C1432.94 1574.8999999999999 1435.73 1572.11 1439.17 1572.11Z " fill="#000003" transform="matrix(1,0,0,1,-552,-1492)"></path><path id="SvgjsPath1049" d="M1439.39 1575.89C1441.1100000000001 1575.89 1442.5 1577.2800000000002 1442.5 1579C1442.5 1580.72 1441.11 1582.11 1439.39 1582.11C1437.67 1582.11 1436.2800000000002 1580.7199999999998 1436.2800000000002 1579C1436.2800000000002 1577.28 1437.6700000000003 1575.89 1439.39 1575.89Z " fill="#353542" transform="matrix(1,0,0,1,-552,-1492)"></path></svg>