<svg id="SvgjsSvg1008" xmlns="http://www.w3.org/2000/svg" version="1.1" xmlns:xlink="http://www.w3.org/1999/xlink" xmlns:svgjs="http://svgjs.com/svgjs" width="38" height="38"><defs id="SvgjsDefs1009"></defs><path id="SvgjsPath1010" d="M5251.57495 95.39423C5252.1276800000005 95.94682999999999 5252.1276800000005 96.85055999999999 5251.57495 97.40343999999999L5250.4028 98.57561999999999C5249.8500699999995 99.12849999999999 5248.94577 99.12849999999999 5248.39376 98.57561999999999L5233.48928 83.67124999999999L5218.58519 98.57506999999998C5218.032459999999 99.12739999999998 5217.12816 99.12739999999998 5216.57615 98.57506999999998L5215.40365 97.40288999999999C5214.85092 96.85055999999999 5214.85092 95.94600999999999 5215.40365 95.39367999999999L5230.30761 80.48958999999999L5215.4047199999995 65.58680999999999C5214.851989999999 65.03392999999998 5214.851989999999 64.12992999999999 5215.4047199999995 63.57759999999998L5216.577579999999 62.40486999999998C5217.13031 61.85198999999998 5218.034249999999 61.85198999999998 5218.586619999999 62.40486999999998L5233.489229999999 77.30793999999997L5248.392709999999 62.40431999999997C5248.9454399999995 61.85171999999997 5249.849029999999 61.85171999999997 5250.401749999999 62.40431999999997L5251.574609999999 63.57704999999997C5252.126979999999 64.12992999999997 5252.126979999999 65.03392999999997 5251.574609999999 65.58625999999997L5236.6708899999985 80.48970999999997Z " fill="#000000" transform="matrix(1,0,0,1,-5214,-61)"></path></svg>