<svg id="SvgjsSvg1100" xmlns="http://www.w3.org/2000/svg" version="1.1" xmlns:xlink="http://www.w3.org/1999/xlink" xmlns:svgjs="http://svgjs.com/svgjs" width="549" height="1151"><defs id="SvgjsDefs1101"><linearGradient id="SvgjsLinearGradient1112" gradientUnits="userSpaceOnUse" x1="1441.6350000000002" y1="6089.9" x2="1441.6350000000002" y2="4943.83"><stop id="SvgjsStop1113" stop-opacity="1" stop-color="#a9a9a9" offset="0"></stop><stop id="SvgjsStop1114" stop-opacity="1" stop-color="#d8d8d8" offset="1"></stop></linearGradient><linearGradient id="SvgjsLinearGradient1117" gradientUnits="userSpaceOnUse" x1="1441.94" y1="6083.84" x2="1441.94" y2="4950.5"><stop id="SvgjsStop1118" stop-opacity="1" stop-color="#c7c7c7" offset="0"></stop><stop id="SvgjsStop1119" stop-opacity="1" stop-color="#e7e7e7" offset="1"></stop></linearGradient><filter id="SvgjsFilter1123" width="200%" height="200%" x="-50%" y="-50%"><feGaussianBlur id="SvgjsFeGaussianBlur1124" stdDeviation="0 " result="SvgjsFeGaussianBlur1124Out" in="SourceGraphic"></feGaussianBlur></filter><linearGradient id="SvgjsLinearGradient1128" gradientUnits="userSpaceOnUse" x1="1440.8249999999998" y1="6092.96372699" x2="1440.8249999999998" y2="5989.87372699"><stop id="SvgjsStop1129" stop-opacity="0.47" stop-color="#d8d8d8" offset="0"></stop><stop id="SvgjsStop1130" stop-opacity="0.47" stop-color="#b7b7b7" offset="1"></stop></linearGradient><filter id="SvgjsFilter1133" width="200%" height="200%" x="-50%" y="-50%"><feGaussianBlur id="SvgjsFeGaussianBlur1134" stdDeviation="0 " result="SvgjsFeGaussianBlur1134Out" in="SourceGraphic"></feGaussianBlur></filter><linearGradient id="SvgjsLinearGradient1138" gradientUnits="userSpaceOnUse" x1="1440.8249999999998" y1="6092.96372699" x2="1440.8249999999998" y2="5989.87372699"><stop id="SvgjsStop1139" stop-opacity="0.47" stop-color="#d8d8d8" offset="0"></stop><stop id="SvgjsStop1140" stop-opacity="0.47" stop-color="#b7b7b7" offset="1"></stop></linearGradient><linearGradient id="SvgjsLinearGradient1148" gradientUnits="userSpaceOnUse" x1="1441.6350000000002" y1="6089.9" x2="1441.6350000000002" y2="4943.83"><stop id="SvgjsStop1149" stop-opacity="1" stop-color="#a9a9a9" offset="0"></stop><stop id="SvgjsStop1150" stop-opacity="1" stop-color="#d8d8d8" offset="1"></stop></linearGradient><linearGradient id="SvgjsLinearGradient1153" gradientUnits="userSpaceOnUse" x1="1441.94" y1="6083.84" x2="1441.94" y2="4950.5"><stop id="SvgjsStop1154" stop-opacity="1" stop-color="#c7c7c7" offset="0"></stop><stop id="SvgjsStop1155" stop-opacity="1" stop-color="#e7e7e7" offset="1"></stop></linearGradient><filter id="SvgjsFilter1159" width="200%" height="200%" x="-50%" y="-50%"><feGaussianBlur id="SvgjsFeGaussianBlur1160" stdDeviation="0 " result="SvgjsFeGaussianBlur1160Out" in="SourceGraphic"></feGaussianBlur></filter><linearGradient id="SvgjsLinearGradient1164" gradientUnits="userSpaceOnUse" x1="1440.8249999999998" y1="6092.96372699" x2="1440.8249999999998" y2="5989.87372699"><stop id="SvgjsStop1165" stop-opacity="0.47" stop-color="#d8d8d8" offset="0"></stop><stop id="SvgjsStop1166" stop-opacity="0.47" stop-color="#b7b7b7" offset="1"></stop></linearGradient></defs><path id="SvgjsPath1102" d="M1167.44 5210.64L1174.42 5210.64C1176.1000000000001 5210.64 1177.45 5212 1177.45 5213.67L1177.45 5247.65C1177.45 5249.32 1176.1000000000001 5250.679999999999 1174.42 5250.679999999999L1167.44 5250.679999999999C1165.77 5250.679999999999 1164.41 5249.32 1164.41 5247.65L1164.41 5213.67C1164.41 5212 1165.77 5210.64 1167.44 5210.64Z " fill="#d8d8d8" transform="matrix(1,0,0,1,-1164,-4939)"></path><path id="SvgjsPath1103" d="M1167.44 5305.84L1174.42 5305.84C1176.1000000000001 5305.84 1177.45 5307.2 1177.45 5308.88L1177.45 5342.85C1177.45 5344.530000000001 1176.1000000000001 5345.88 1174.42 5345.88L1167.44 5345.88C1165.77 5345.88 1164.41 5344.53 1164.41 5342.85L1164.41 5308.88C1164.41 5307.2 1165.77 5305.84 1167.44 5305.84Z " fill="#d8d8d8" transform="matrix(1,0,0,1,-1164,-4939)"></path><path id="SvgjsPath1104" d="M1168.05 5102.7L1175.03 5102.7C1176.7 5102.7 1178.06 5104.0599999999995 1178.06 5105.74L1178.06 5150.61C1178.06 5152.28 1176.7 5153.639999999999 1175.03 5153.639999999999L1168.05 5153.639999999999C1166.3799999999999 5153.639999999999 1165.02 5152.28 1165.02 5150.61L1165.02 5105.74C1165.02 5104.0599999999995 1166.3799999999999 5102.7 1168.05 5102.7Z " fill="#d8d8d8" transform="matrix(1,0,0,1,-1164,-4939)"></path><path id="SvgjsPath1105" d="M1621.81 4942.65L1621.81 4949.629999999999C1621.81 4951.299999999999 1620.46 4952.659999999999 1618.78 4952.659999999999L1536.87 4952.659999999999C1535.1999999999998 4952.659999999999 1533.84 4951.299999999999 1533.84 4949.629999999999L1533.84 4942.65C1533.84 4940.98 1535.1999999999998 4939.62 1536.87 4939.62L1618.78 4939.62C1620.46 4939.62 1621.81 4940.98 1621.81 4942.65Z " fill="#d8d8d8" transform="matrix(1,0,0,1,-1164,-4939)"></path><path id="SvgjsPath1106" d="M1167.44 5210.64L1174.42 5210.64C1176.1000000000001 5210.64 1177.45 5212 1177.45 5213.67L1177.45 5247.65C1177.45 5249.32 1176.1000000000001 5250.679999999999 1174.42 5250.679999999999L1167.44 5250.679999999999C1165.77 5250.679999999999 1164.41 5249.32 1164.41 5247.65L1164.41 5213.67C1164.41 5212 1165.77 5210.64 1167.44 5210.64Z " fill="#d8d8d8" transform="matrix(1,0,0,1,-1164,-4939)"></path><path id="SvgjsPath1107" d="M1167.44 5305.84L1174.42 5305.84C1176.1000000000001 5305.84 1177.45 5307.2 1177.45 5308.88L1177.45 5342.85C1177.45 5344.530000000001 1176.1000000000001 5345.88 1174.42 5345.88L1167.44 5345.88C1165.77 5345.88 1164.41 5344.53 1164.41 5342.85L1164.41 5308.88C1164.41 5307.2 1165.77 5305.84 1167.44 5305.84Z " fill="#d8d8d8" transform="matrix(1,0,0,1,-1164,-4939)"></path><path id="SvgjsPath1108" d="M1168.05 5102.7L1175.03 5102.7C1176.7 5102.7 1178.06 5104.0599999999995 1178.06 5105.74L1178.06 5150.61C1178.06 5152.28 1176.7 5153.639999999999 1175.03 5153.639999999999L1168.05 5153.639999999999C1166.3799999999999 5153.639999999999 1165.02 5152.28 1165.02 5150.61L1165.02 5105.74C1165.02 5104.0599999999995 1166.3799999999999 5102.7 1168.05 5102.7Z " fill="#d8d8d8" transform="matrix(1,0,0,1,-1164,-4939)"></path><path id="SvgjsPath1109" d="M1621.81 4942.65L1621.81 4949.629999999999C1621.81 4951.299999999999 1620.46 4952.659999999999 1618.78 4952.659999999999L1536.87 4952.659999999999C1535.1999999999998 4952.659999999999 1533.84 4951.299999999999 1533.84 4949.629999999999L1533.84 4942.65C1533.84 4940.98 1535.1999999999998 4939.62 1536.87 4939.62L1618.78 4939.62C1620.46 4939.62 1621.81 4940.98 1621.81 4942.65Z " fill="#d8d8d8" transform="matrix(1,0,0,1,-1164,-4939)"></path><path id="SvgjsPath1110" d="M1251.16 4943.83L1632.1100000000001 4943.83C1675.3300000000002 4943.83 1712.7900000000002 4980.67 1712.7900000000002 5023.87L1712.7900000000002 6009.86C1712.7900000000002 6053.0599999999995 1675.9400000000003 6089.9 1632.7200000000003 6089.9L1250.5500000000002 6089.9C1207.3300000000002 6089.9 1170.4800000000002 6052.46 1170.4800000000002 6009.25L1170.4800000000002 5024.48C1170.4800000000002 4981.28 1207.9400000000003 4943.83 1251.1600000000003 4943.83Z " fill="#d8d8d8" transform="matrix(1,0,0,1,-1164,-4939)"></path><path id="SvgjsPath1111" d="M1251.16 4943.83L1632.1100000000001 4943.83C1675.3300000000002 4943.83 1712.7900000000002 4980.67 1712.7900000000002 5023.87L1712.7900000000002 6009.86C1712.7900000000002 6053.0599999999995 1675.9400000000003 6089.9 1632.7200000000003 6089.9L1250.5500000000002 6089.9C1207.3300000000002 6089.9 1170.4800000000002 6052.46 1170.4800000000002 6009.25L1170.4800000000002 5024.48C1170.4800000000002 4981.28 1207.9400000000003 4943.83 1251.1600000000003 4943.83Z " fill="url(#SvgjsLinearGradient1112)" transform="matrix(1,0,0,1,-1164,-4939)"></path><path id="SvgjsPath1115" d="M1251.16 4950.5L1632.72 4950.5C1672.92 4950.5 1706.73 4984.29 1706.73 5024.48L1706.73 6009.86C1706.73 6050.049999999999 1672.92 6083.839999999999 1632.72 6083.839999999999L1251.16 6083.839999999999C1210.95 6083.839999999999 1177.15 6049.44 1177.15 6009.249999999999L1177.15 5024.48C1177.15 4984.29 1210.95 4950.5 1251.16 4950.5Z " fill="#d8d8d8" transform="matrix(1,0,0,1,-1164,-4939)"></path><path id="SvgjsPath1116" d="M1251.16 4950.5L1632.72 4950.5C1672.92 4950.5 1706.73 4984.29 1706.73 5024.48L1706.73 6009.86C1706.73 6050.049999999999 1672.92 6083.839999999999 1632.72 6083.839999999999L1251.16 6083.839999999999C1210.95 6083.839999999999 1177.15 6049.44 1177.15 6009.249999999999L1177.15 5024.48C1177.15 4984.29 1210.95 4950.5 1251.16 4950.5Z " fill="url(#SvgjsLinearGradient1117)" transform="matrix(1,0,0,1,-1164,-4939)"></path><path id="SvgjsPath1120" d="M1251.56 4956.97L1631.31 4956.97C1668.1599999999999 4956.97 1700.06 4988.650000000001 1700.06 5025.490000000001L1700.06 6008.240000000001C1700.06 6045.080000000001 1668.1599999999999 6077.790000000001 1631.31 6077.790000000001L1251.8 6077.790000000001C1214.94 6077.790000000001 1183.22 6046.570000000001 1183.22 6009.740000000001L1183.22 5025.490000000001C1183.22 4988.650000000001 1214.71 4956.97 1251.56 4956.97Z " fill="#d8d8d8" transform="matrix(1,0,0,1,-1164,-4939)"></path><path id="SvgjsPath1121" d="M1170 5053L1170 5044L1183 5044L1183 5053ZM1170 5994L1170 5986L1183 5986L1183 5994ZM1700 5994L1700 5986L1713 5986L1713 5994ZM1700 5053L1700 5045L1713 5045L1713 5053Z " fill="#181819" transform="matrix(1,0,0,1,-1164,-4939)"></path><path id="SvgjsPath1122" d="M1440.83 5957.09C1469.3 5957.09 1492.3899999999999 5980.17 1492.3899999999999 6008.64C1492.3899999999999 6037.1 1469.3 6060.18 1440.83 6060.18C1412.35 6060.18 1389.26 6037.1 1389.26 6008.64C1389.26 5980.17 1412.35 5957.09 1440.83 5957.09Z " fill="#ffffff" fill-opacity="0.24" filter="url(#SvgjsFilter1123)" transform="matrix(1,0,0,1,-1164,-4939)"></path><path id="SvgjsPath1125" d="M1440.83 5956.09C1469.3 5956.09 1492.3899999999999 5979.17 1492.3899999999999 6007.64C1492.3899999999999 6036.1 1469.3 6059.18 1440.83 6059.18C1412.35 6059.18 1389.26 6036.1 1389.26 6007.64C1389.26 5979.17 1412.35 5956.09 1440.83 5956.09Z " fill="#d8d8d8" transform="matrix(1,0,0,1,-1164,-4939)"></path><path id="SvgjsPath1126" d="M1440.83 5956.09C1469.3 5956.09 1492.3899999999999 5979.17 1492.3899999999999 6007.64C1492.3899999999999 6036.1 1469.3 6059.18 1440.83 6059.18C1412.35 6059.18 1389.26 6036.1 1389.26 6007.64C1389.26 5979.17 1412.35 5956.09 1440.83 5956.09Z " fill="#d8d8d8" transform="matrix(1,0,0,1,-1164,-4939)"></path><path id="SvgjsPath1127" d="M1440.83 5956.09C1469.3 5956.09 1492.3899999999999 5979.17 1492.3899999999999 6007.64C1492.3899999999999 6036.1 1469.3 6059.18 1440.83 6059.18C1412.35 6059.18 1389.26 6036.1 1389.26 6007.64C1389.26 5979.17 1412.35 5956.09 1440.83 5956.09Z " fill="url(#SvgjsLinearGradient1128)" transform="matrix(1,0,0,1,-1164,-4939)"></path><path id="SvgjsPath1131" d="M1430.21 5987.42L1451.94 5987.42C1457 5987.42 1461.1000000000001 5991.53 1461.1000000000001 5996.59L1461.1000000000001 6018.31C1461.1000000000001 6023.370000000001 1457.0000000000002 6027.4800000000005 1451.94 6027.4800000000005L1430.21 6027.4800000000005C1425.14 6027.4800000000005 1421.04 6023.370000000001 1421.04 6018.31L1421.04 5996.59C1421.04 5991.53 1425.1399999999999 5987.42 1430.21 5987.42ZM1425.26 5998.88L1425.26 6015.9800000000005C1425.26 6019.96 1428.49 6023.1900000000005 1432.48 6023.1900000000005L1449.58 6023.1900000000005C1453.57 6023.1900000000005 1456.8 6019.960000000001 1456.8 6015.9800000000005L1456.8 5998.88C1456.8 5994.900000000001 1453.57 5991.67 1449.58 5991.67L1432.48 5991.67C1428.49 5991.67 1425.26 5994.9 1425.26 5998.88Z " fill="#ffffff" transform="matrix(1,0,0,1,-1164,-4939)"></path><path id="SvgjsPath1132" d="M1440.83 5957.09C1469.3 5957.09 1492.3899999999999 5980.17 1492.3899999999999 6008.64C1492.3899999999999 6037.1 1469.3 6060.18 1440.83 6060.18C1412.35 6060.18 1389.26 6037.1 1389.26 6008.64C1389.26 5980.17 1412.35 5957.09 1440.83 5957.09Z " fill="#ffffff" fill-opacity="0.24" filter="url(#SvgjsFilter1133)" transform="matrix(1,0,0,1,-1164,-4939)"></path><path id="SvgjsPath1135" d="M1440.83 5956.09C1469.3 5956.09 1492.3899999999999 5979.17 1492.3899999999999 6007.64C1492.3899999999999 6036.1 1469.3 6059.18 1440.83 6059.18C1412.35 6059.18 1389.26 6036.1 1389.26 6007.64C1389.26 5979.17 1412.35 5956.09 1440.83 5956.09Z " fill="#d8d8d8" transform="matrix(1,0,0,1,-1164,-4939)"></path><path id="SvgjsPath1136" d="M1440.83 5956.09C1469.3 5956.09 1492.3899999999999 5979.17 1492.3899999999999 6007.64C1492.3899999999999 6036.1 1469.3 6059.18 1440.83 6059.18C1412.35 6059.18 1389.26 6036.1 1389.26 6007.64C1389.26 5979.17 1412.35 5956.09 1440.83 5956.09Z " fill="#d8d8d8" transform="matrix(1,0,0,1,-1164,-4939)"></path><path id="SvgjsPath1137" d="M1440.83 5956.09C1469.3 5956.09 1492.3899999999999 5979.17 1492.3899999999999 6007.64C1492.3899999999999 6036.1 1469.3 6059.18 1440.83 6059.18C1412.35 6059.18 1389.26 6036.1 1389.26 6007.64C1389.26 5979.17 1412.35 5956.09 1440.83 5956.09Z " fill="url(#SvgjsLinearGradient1138)" transform="matrix(1,0,0,1,-1164,-4939)"></path><path id="SvgjsPath1141" d="M1430.21 5987.42L1451.94 5987.42C1457 5987.42 1461.1000000000001 5991.53 1461.1000000000001 5996.59L1461.1000000000001 6018.31C1461.1000000000001 6023.370000000001 1457.0000000000002 6027.4800000000005 1451.94 6027.4800000000005L1430.21 6027.4800000000005C1425.14 6027.4800000000005 1421.04 6023.370000000001 1421.04 6018.31L1421.04 5996.59C1421.04 5991.53 1425.1399999999999 5987.42 1430.21 5987.42ZM1425.26 5998.88L1425.26 6015.9800000000005C1425.26 6019.96 1428.49 6023.1900000000005 1432.48 6023.1900000000005L1449.58 6023.1900000000005C1453.57 6023.1900000000005 1456.8 6019.960000000001 1456.8 6015.9800000000005L1456.8 5998.88C1456.8 5994.900000000001 1453.57 5991.67 1449.58 5991.67L1432.48 5991.67C1428.49 5991.67 1425.26 5994.9 1425.26 5998.88Z " fill="#ffffff" transform="matrix(1,0,0,1,-1164,-4939)"></path><path id="SvgjsPath1142" d="M1167.44 5210.64L1174.42 5210.64C1176.1000000000001 5210.64 1177.45 5212 1177.45 5213.67L1177.45 5247.65C1177.45 5249.32 1176.1000000000001 5250.679999999999 1174.42 5250.679999999999L1167.44 5250.679999999999C1165.77 5250.679999999999 1164.41 5249.32 1164.41 5247.65L1164.41 5213.67C1164.41 5212 1165.77 5210.64 1167.44 5210.64Z " fill="#d8d8d8" transform="matrix(1,0,0,1,-1164,-4939)"></path><path id="SvgjsPath1143" d="M1167.44 5305.84L1174.42 5305.84C1176.1000000000001 5305.84 1177.45 5307.2 1177.45 5308.88L1177.45 5342.85C1177.45 5344.530000000001 1176.1000000000001 5345.88 1174.42 5345.88L1167.44 5345.88C1165.77 5345.88 1164.41 5344.53 1164.41 5342.85L1164.41 5308.88C1164.41 5307.2 1165.77 5305.84 1167.44 5305.84Z " fill="#d8d8d8" transform="matrix(1,0,0,1,-1164,-4939)"></path><path id="SvgjsPath1144" d="M1168.05 5102.7L1175.03 5102.7C1176.7 5102.7 1178.06 5104.0599999999995 1178.06 5105.74L1178.06 5150.61C1178.06 5152.28 1176.7 5153.639999999999 1175.03 5153.639999999999L1168.05 5153.639999999999C1166.3799999999999 5153.639999999999 1165.02 5152.28 1165.02 5150.61L1165.02 5105.74C1165.02 5104.0599999999995 1166.3799999999999 5102.7 1168.05 5102.7Z " fill="#d8d8d8" transform="matrix(1,0,0,1,-1164,-4939)"></path><path id="SvgjsPath1145" d="M1621.81 4942.65L1621.81 4949.629999999999C1621.81 4951.299999999999 1620.46 4952.659999999999 1618.78 4952.659999999999L1536.87 4952.659999999999C1535.1999999999998 4952.659999999999 1533.84 4951.299999999999 1533.84 4949.629999999999L1533.84 4942.65C1533.84 4940.98 1535.1999999999998 4939.62 1536.87 4939.62L1618.78 4939.62C1620.46 4939.62 1621.81 4940.98 1621.81 4942.65Z " fill="#d8d8d8" transform="matrix(1,0,0,1,-1164,-4939)"></path><path id="SvgjsPath1146" d="M1251.16 4943.83L1632.1100000000001 4943.83C1675.3300000000002 4943.83 1712.7900000000002 4980.67 1712.7900000000002 5023.87L1712.7900000000002 6009.86C1712.7900000000002 6053.0599999999995 1675.9400000000003 6089.9 1632.7200000000003 6089.9L1250.5500000000002 6089.9C1207.3300000000002 6089.9 1170.4800000000002 6052.46 1170.4800000000002 6009.25L1170.4800000000002 5024.48C1170.4800000000002 4981.28 1207.9400000000003 4943.83 1251.1600000000003 4943.83Z " fill="#d8d8d8" transform="matrix(1,0,0,1,-1164,-4939)"></path><path id="SvgjsPath1147" d="M1251.16 4943.83L1632.1100000000001 4943.83C1675.3300000000002 4943.83 1712.7900000000002 4980.67 1712.7900000000002 5023.87L1712.7900000000002 6009.86C1712.7900000000002 6053.0599999999995 1675.9400000000003 6089.9 1632.7200000000003 6089.9L1250.5500000000002 6089.9C1207.3300000000002 6089.9 1170.4800000000002 6052.46 1170.4800000000002 6009.25L1170.4800000000002 5024.48C1170.4800000000002 4981.28 1207.9400000000003 4943.83 1251.1600000000003 4943.83Z " fill="url(#SvgjsLinearGradient1148)" transform="matrix(1,0,0,1,-1164,-4939)"></path><path id="SvgjsPath1151" d="M1251.16 4950.5L1632.72 4950.5C1672.92 4950.5 1706.73 4984.29 1706.73 5024.48L1706.73 6009.86C1706.73 6050.049999999999 1672.92 6083.839999999999 1632.72 6083.839999999999L1251.16 6083.839999999999C1210.95 6083.839999999999 1177.15 6049.44 1177.15 6009.249999999999L1177.15 5024.48C1177.15 4984.29 1210.95 4950.5 1251.16 4950.5Z " fill="#d8d8d8" transform="matrix(1,0,0,1,-1164,-4939)"></path><path id="SvgjsPath1152" d="M1251.16 4950.5L1632.72 4950.5C1672.92 4950.5 1706.73 4984.29 1706.73 5024.48L1706.73 6009.86C1706.73 6050.049999999999 1672.92 6083.839999999999 1632.72 6083.839999999999L1251.16 6083.839999999999C1210.95 6083.839999999999 1177.15 6049.44 1177.15 6009.249999999999L1177.15 5024.48C1177.15 4984.29 1210.95 4950.5 1251.16 4950.5Z " fill="url(#SvgjsLinearGradient1153)" transform="matrix(1,0,0,1,-1164,-4939)"></path><path id="SvgjsPath1156" d="M1251.56 4956.97L1631.31 4956.97C1668.1599999999999 4956.97 1700.06 4988.650000000001 1700.06 5025.490000000001L1700.06 6008.240000000001C1700.06 6045.080000000001 1668.1599999999999 6077.790000000001 1631.31 6077.790000000001L1251.8 6077.790000000001C1214.94 6077.790000000001 1183.22 6046.570000000001 1183.22 6009.740000000001L1183.22 5025.490000000001C1183.22 4988.650000000001 1214.71 4956.97 1251.56 4956.97Z " fill="#d8d8d8" transform="matrix(1,0,0,1,-1164,-4939)"></path><path id="SvgjsPath1157" d="M1170 5053L1170 5044L1183 5044L1183 5053ZM1170 5994L1170 5986L1183 5986L1183 5994ZM1700 5994L1700 5986L1713 5986L1713 5994ZM1700 5053L1700 5045L1713 5045L1713 5053Z " fill="#181819" transform="matrix(1,0,0,1,-1164,-4939)"></path><path id="SvgjsPath1158" d="M1440.83 5957.09C1469.3 5957.09 1492.3899999999999 5980.17 1492.3899999999999 6008.64C1492.3899999999999 6037.1 1469.3 6060.18 1440.83 6060.18C1412.35 6060.18 1389.26 6037.1 1389.26 6008.64C1389.26 5980.17 1412.35 5957.09 1440.83 5957.09Z " fill="#ffffff" fill-opacity="0.24" filter="url(#SvgjsFilter1159)" transform="matrix(1,0,0,1,-1164,-4939)"></path><path id="SvgjsPath1161" d="M1440.83 5956.09C1469.3 5956.09 1492.3899999999999 5979.17 1492.3899999999999 6007.64C1492.3899999999999 6036.1 1469.3 6059.18 1440.83 6059.18C1412.35 6059.18 1389.26 6036.1 1389.26 6007.64C1389.26 5979.17 1412.35 5956.09 1440.83 5956.09Z " fill="#d8d8d8" transform="matrix(1,0,0,1,-1164,-4939)"></path><path id="SvgjsPath1162" d="M1440.83 5956.09C1469.3 5956.09 1492.3899999999999 5979.17 1492.3899999999999 6007.64C1492.3899999999999 6036.1 1469.3 6059.18 1440.83 6059.18C1412.35 6059.18 1389.26 6036.1 1389.26 6007.64C1389.26 5979.17 1412.35 5956.09 1440.83 5956.09Z " fill="#d8d8d8" transform="matrix(1,0,0,1,-1164,-4939)"></path><path id="SvgjsPath1163" d="M1440.83 5956.09C1469.3 5956.09 1492.3899999999999 5979.17 1492.3899999999999 6007.64C1492.3899999999999 6036.1 1469.3 6059.18 1440.83 6059.18C1412.35 6059.18 1389.26 6036.1 1389.26 6007.64C1389.26 5979.17 1412.35 5956.09 1440.83 5956.09Z " fill="url(#SvgjsLinearGradient1164)" transform="matrix(1,0,0,1,-1164,-4939)"></path><path id="SvgjsPath1167" d="M1430.21 5987.42L1451.94 5987.42C1457 5987.42 1461.1000000000001 5991.53 1461.1000000000001 5996.59L1461.1000000000001 6018.31C1461.1000000000001 6023.370000000001 1457.0000000000002 6027.4800000000005 1451.94 6027.4800000000005L1430.21 6027.4800000000005C1425.14 6027.4800000000005 1421.04 6023.370000000001 1421.04 6018.31L1421.04 5996.59C1421.04 5991.53 1425.1399999999999 5987.42 1430.21 5987.42ZM1425.26 5998.88L1425.26 6015.9800000000005C1425.26 6019.96 1428.49 6023.1900000000005 1432.48 6023.1900000000005L1449.58 6023.1900000000005C1453.57 6023.1900000000005 1456.8 6019.960000000001 1456.8 6015.9800000000005L1456.8 5998.88C1456.8 5994.900000000001 1453.57 5991.67 1449.58 5991.67L1432.48 5991.67C1428.49 5991.67 1425.26 5994.9 1425.26 5998.88Z " fill="#ffffff" transform="matrix(1,0,0,1,-1164,-4939)"></path></svg>