<svg id="SvgjsSvg1168" xmlns="http://www.w3.org/2000/svg" version="1.1" xmlns:xlink="http://www.w3.org/1999/xlink" xmlns:svgjs="http://svgjs.com/svgjs" width="867" height="1285"><defs id="SvgjsDefs1169"><linearGradient id="SvgjsLinearGradient1172" gradientUnits="userSpaceOnUse" x1="1445.5" y1="4449" x2="1445.5" y2="3164"><stop id="SvgjsStop1173" stop-opacity="1" stop-color="#191919" offset="0"></stop><stop id="SvgjsStop1174" stop-opacity="1" stop-color="#262626" offset="1"></stop></linearGradient><clipPath id="SvgjsClipPath1178"><path id="SvgjsPath1177" d="M1017 4442L1017 3169L1874 3169L1874 4442ZM1083 3170C1047.8 3170 1018.02 3198.81 1018.02 3233.97L1018.02 4377.65C1018.02 4412.8099999999995 1046.8 4441 1082 4441L1809 4441C1844.2 4441 1872.02 4412.81 1872.02 4377.65L1872.02 3233.9699999999993C1872.02 3198.8099999999995 1844.2 3169.9999999999995 1809 3169.9999999999995Z " fill="#ffffff"></path></clipPath><filter id="SvgjsFilter1180" width="200%" height="200%" x="-50%" y="-50%"><feGaussianBlur id="SvgjsFeGaussianBlur1181" stdDeviation="0 " result="SvgjsFeGaussianBlur1181Out" in="SourceGraphic"></feGaussianBlur></filter><linearGradient id="SvgjsLinearGradient1185" gradientUnits="userSpaceOnUse" x1="1445.5" y1="4431.645793" x2="1445.5" y2="4368.645793"><stop id="SvgjsStop1186" stop-opacity="0.47" stop-color="#353434" offset="0"></stop><stop id="SvgjsStop1187" stop-opacity="0.47" stop-color="#1d1d1d" offset="1"></stop></linearGradient><filter id="SvgjsFilter1190" width="200%" height="200%" x="-50%" y="-50%"><feGaussianBlur id="SvgjsFeGaussianBlur1191" stdDeviation="0 " result="SvgjsFeGaussianBlur1191Out" in="SourceGraphic"></feGaussianBlur></filter><linearGradient id="SvgjsLinearGradient1195" gradientUnits="userSpaceOnUse" x1="1445.5" y1="4431.645793" x2="1445.5" y2="4368.645793"><stop id="SvgjsStop1196" stop-opacity="0.47" stop-color="#353434" offset="0"></stop><stop id="SvgjsStop1197" stop-opacity="0.47" stop-color="#1d1d1d" offset="1"></stop></linearGradient><linearGradient id="SvgjsLinearGradient1201" gradientUnits="userSpaceOnUse" x1="1445.5" y1="4449" x2="1445.5" y2="3164"><stop id="SvgjsStop1202" stop-opacity="1" stop-color="#191919" offset="0"></stop><stop id="SvgjsStop1203" stop-opacity="1" stop-color="#262626" offset="1"></stop></linearGradient><clipPath id="SvgjsClipPath1207"><path id="SvgjsPath1206" d="M1017 4442L1017 3169L1874 3169L1874 4442ZM1083 3170C1047.8 3170 1018.02 3198.81 1018.02 3233.97L1018.02 4377.65C1018.02 4412.8099999999995 1046.8 4441 1082 4441L1809 4441C1844.2 4441 1872.02 4412.81 1872.02 4377.65L1872.02 3233.9699999999993C1872.02 3198.8099999999995 1844.2 3169.9999999999995 1809 3169.9999999999995Z " fill="#ffffff"></path></clipPath><filter id="SvgjsFilter1209" width="200%" height="200%" x="-50%" y="-50%"><feGaussianBlur id="SvgjsFeGaussianBlur1210" stdDeviation="0 " result="SvgjsFeGaussianBlur1210Out" in="SourceGraphic"></feGaussianBlur></filter><linearGradient id="SvgjsLinearGradient1214" gradientUnits="userSpaceOnUse" x1="1445.5" y1="4431.645793" x2="1445.5" y2="4368.645793"><stop id="SvgjsStop1215" stop-opacity="0.47" stop-color="#353434" offset="0"></stop><stop id="SvgjsStop1216" stop-opacity="0.47" stop-color="#1d1d1d" offset="1"></stop></linearGradient><filter id="SvgjsFilter1219" width="200%" height="200%" x="-50%" y="-50%"><feGaussianBlur id="SvgjsFeGaussianBlur1220" stdDeviation="0 " result="SvgjsFeGaussianBlur1220Out" in="SourceGraphic"></feGaussianBlur></filter><linearGradient id="SvgjsLinearGradient1224" gradientUnits="userSpaceOnUse" x1="1445.5970472425" y1="3242.548248" x2="1445.5970472425" y2="3225.548248"><stop id="SvgjsStop1225" stop-opacity="0.06" stop-color="#ffffff" offset="0"></stop><stop id="SvgjsStop1226" stop-opacity="0.06" stop-color="#000000" offset="1"></stop></linearGradient><filter id="SvgjsFilter1230" width="200%" height="200%" x="-50%" y="-50%"><feGaussianBlur id="SvgjsFeGaussianBlur1231" stdDeviation="0 " result="SvgjsFeGaussianBlur1231Out" in="SourceGraphic"></feGaussianBlur></filter><linearGradient id="SvgjsLinearGradient1235" gradientUnits="userSpaceOnUse" x1="1445.5970472425" y1="3242.548248" x2="1445.5970472425" y2="3225.548248"><stop id="SvgjsStop1236" stop-opacity="0.06" stop-color="#ffffff" offset="0"></stop><stop id="SvgjsStop1237" stop-opacity="0.06" stop-color="#000000" offset="1"></stop></linearGradient></defs><path id="SvgjsPath1170" d="M1080.21 3164L1810.79 3164C1848.46 3164 1879 3194.49 1879 3232.1L1879 4380.9C1879 4418.509999999999 1848.46 4449 1810.79 4449L1080.21 4449C1042.54 4449 1012 4418.51 1012 4380.9L1012 3232.0999999999995C1012 3194.4899999999993 1042.54 3163.9999999999995 1080.21 3163.9999999999995Z " fill="#1d1d1d" transform="matrix(1,0,0,1,-1012,-3164)"></path><path id="SvgjsPath1171" d="M1080.21 3164L1810.79 3164C1848.46 3164 1879 3194.49 1879 3232.1L1879 4380.9C1879 4418.509999999999 1848.46 4449 1810.79 4449L1080.21 4449C1042.54 4449 1012 4418.51 1012 4380.9L1012 3232.0999999999995C1012 3194.4899999999993 1042.54 3163.9999999999995 1080.21 3163.9999999999995Z " fill="url(#SvgjsLinearGradient1172)" transform="matrix(1,0,0,1,-1012,-3164)"></path><path id="SvgjsPath1175" d="M1083 3170L1809 3170C1844.2 3170 1872.02 3198.81 1872.02 3233.97L1872.02 4377.65C1872.02 4412.8099999999995 1844.2 4441 1809 4441L1082 4441C1046.8 4441 1018.02 4412.81 1018.02 4377.65L1018.02 3233.9699999999993C1018.02 3198.8099999999995 1047.8 3169.9999999999995 1083 3169.9999999999995Z " fill="#1d1d1d" transform="matrix(1,0,0,1,-1012,-3164)"></path><path id="SvgjsPath1176" d="M1083 3170L1809 3170C1844.2 3170 1872.02 3198.81 1872.02 3233.97L1872.02 4377.65C1872.02 4412.8099999999995 1844.2 4441 1809 4441L1082 4441C1046.8 4441 1018.02 4412.81 1018.02 4377.65L1018.02 3233.9699999999993C1018.02 3198.8099999999995 1047.8 3169.9999999999995 1083 3169.9999999999995Z " fill-opacity="0" fill="#ffffff" stroke-dasharray="0" stroke-linejoin="round" stroke-linecap="round" stroke-opacity="1" stroke="#0f0f0f" stroke-miterlimit="50" stroke-width="2" clip-path="url(&quot;#SvgjsClipPath1178&quot;)" transform="matrix(1,0,0,1,-1012,-3164)"></path><path id="SvgjsPath1179" d="M1445.5 4349C1462.9 4349 1477 4363.1 1477 4380.5C1477 4397.9 1462.9 4412 1445.5 4412C1428.1 4412 1414 4397.9 1414 4380.5C1414 4363.1 1428.1 4349 1445.5 4349Z " fill="#ffffff" fill-opacity="0.04" filter="url(#SvgjsFilter1180)" transform="matrix(1,0,0,1,-1012,-3164)"></path><path id="SvgjsPath1182" d="M1445.5 4348C1462.9 4348 1477 4362.1 1477 4379.5C1477 4396.9 1462.9 4411 1445.5 4411C1428.1 4411 1414 4396.9 1414 4379.5C1414 4362.1 1428.1 4348 1445.5 4348Z " fill="#151515" transform="matrix(1,0,0,1,-1012,-3164)"></path><path id="SvgjsPath1183" d="M1445.5 4348C1462.9 4348 1477 4362.1 1477 4379.5C1477 4396.9 1462.9 4411 1445.5 4411C1428.1 4411 1414 4396.9 1414 4379.5C1414 4362.1 1428.1 4348 1445.5 4348Z " fill="#151515" transform="matrix(1,0,0,1,-1012,-3164)"></path><path id="SvgjsPath1184" d="M1445.5 4348C1462.9 4348 1477 4362.1 1477 4379.5C1477 4396.9 1462.9 4411 1445.5 4411C1428.1 4411 1414 4396.9 1414 4379.5C1414 4362.1 1428.1 4348 1445.5 4348Z " fill="url(#SvgjsLinearGradient1185)" transform="matrix(1,0,0,1,-1012,-3164)"></path><path id="SvgjsPath1188" d="M1440.17 4368.38L1451.75 4368.38C1454.95 4368.38 1457.54 4370.9800000000005 1457.54 4374.17L1457.54 4385.75C1457.54 4388.95 1454.95 4391.54 1451.75 4391.54L1440.17 4391.54C1436.98 4391.54 1434.38 4388.95 1434.38 4385.75L1434.38 4374.17C1434.38 4370.9800000000005 1436.98 4368.38 1440.17 4368.38ZM1436.7 4374.17L1436.7 4385.75C1436.7 4387.67 1438.25 4389.23 1440.17 4389.23L1451.75 4389.23C1453.67 4389.23 1455.23 4387.669999999999 1455.23 4385.75L1455.23 4374.17C1455.23 4372.25 1453.67 4370.7 1451.75 4370.7L1440.17 4370.7C1438.25 4370.7 1436.7 4372.25 1436.7 4374.17Z " fill="#fafafa" transform="matrix(1,0,0,1,-1012,-3164)"></path><path id="SvgjsPath1189" d="M1445.5 4349C1462.9 4349 1477 4363.1 1477 4380.5C1477 4397.9 1462.9 4412 1445.5 4412C1428.1 4412 1414 4397.9 1414 4380.5C1414 4363.1 1428.1 4349 1445.5 4349Z " fill="#ffffff" fill-opacity="0.04" filter="url(#SvgjsFilter1190)" transform="matrix(1,0,0,1,-1012,-3164)"></path><path id="SvgjsPath1192" d="M1445.5 4348C1462.9 4348 1477 4362.1 1477 4379.5C1477 4396.9 1462.9 4411 1445.5 4411C1428.1 4411 1414 4396.9 1414 4379.5C1414 4362.1 1428.1 4348 1445.5 4348Z " fill="#151515" transform="matrix(1,0,0,1,-1012,-3164)"></path><path id="SvgjsPath1193" d="M1445.5 4348C1462.9 4348 1477 4362.1 1477 4379.5C1477 4396.9 1462.9 4411 1445.5 4411C1428.1 4411 1414 4396.9 1414 4379.5C1414 4362.1 1428.1 4348 1445.5 4348Z " fill="#151515" transform="matrix(1,0,0,1,-1012,-3164)"></path><path id="SvgjsPath1194" d="M1445.5 4348C1462.9 4348 1477 4362.1 1477 4379.5C1477 4396.9 1462.9 4411 1445.5 4411C1428.1 4411 1414 4396.9 1414 4379.5C1414 4362.1 1428.1 4348 1445.5 4348Z " fill="url(#SvgjsLinearGradient1195)" transform="matrix(1,0,0,1,-1012,-3164)"></path><path id="SvgjsPath1198" d="M1440.17 4368.38L1451.75 4368.38C1454.95 4368.38 1457.54 4370.9800000000005 1457.54 4374.17L1457.54 4385.75C1457.54 4388.95 1454.95 4391.54 1451.75 4391.54L1440.17 4391.54C1436.98 4391.54 1434.38 4388.95 1434.38 4385.75L1434.38 4374.17C1434.38 4370.9800000000005 1436.98 4368.38 1440.17 4368.38ZM1436.7 4374.17L1436.7 4385.75C1436.7 4387.67 1438.25 4389.23 1440.17 4389.23L1451.75 4389.23C1453.67 4389.23 1455.23 4387.669999999999 1455.23 4385.75L1455.23 4374.17C1455.23 4372.25 1453.67 4370.7 1451.75 4370.7L1440.17 4370.7C1438.25 4370.7 1436.7 4372.25 1436.7 4374.17Z " fill="#fafafa" transform="matrix(1,0,0,1,-1012,-3164)"></path><path id="SvgjsPath1199" d="M1080.21 3164L1810.79 3164C1848.46 3164 1879 3194.49 1879 3232.1L1879 4380.9C1879 4418.509999999999 1848.46 4449 1810.79 4449L1080.21 4449C1042.54 4449 1012 4418.51 1012 4380.9L1012 3232.0999999999995C1012 3194.4899999999993 1042.54 3163.9999999999995 1080.21 3163.9999999999995Z " fill="#1d1d1d" transform="matrix(1,0,0,1,-1012,-3164)"></path><path id="SvgjsPath1200" d="M1080.21 3164L1810.79 3164C1848.46 3164 1879 3194.49 1879 3232.1L1879 4380.9C1879 4418.509999999999 1848.46 4449 1810.79 4449L1080.21 4449C1042.54 4449 1012 4418.51 1012 4380.9L1012 3232.0999999999995C1012 3194.4899999999993 1042.54 3163.9999999999995 1080.21 3163.9999999999995Z " fill="url(#SvgjsLinearGradient1201)" transform="matrix(1,0,0,1,-1012,-3164)"></path><path id="SvgjsPath1204" d="M1083 3170L1809 3170C1844.2 3170 1872.02 3198.81 1872.02 3233.97L1872.02 4377.65C1872.02 4412.8099999999995 1844.2 4441 1809 4441L1082 4441C1046.8 4441 1018.02 4412.81 1018.02 4377.65L1018.02 3233.9699999999993C1018.02 3198.8099999999995 1047.8 3169.9999999999995 1083 3169.9999999999995Z " fill="#1d1d1d" transform="matrix(1,0,0,1,-1012,-3164)"></path><path id="SvgjsPath1205" d="M1083 3170L1809 3170C1844.2 3170 1872.02 3198.81 1872.02 3233.97L1872.02 4377.65C1872.02 4412.8099999999995 1844.2 4441 1809 4441L1082 4441C1046.8 4441 1018.02 4412.81 1018.02 4377.65L1018.02 3233.9699999999993C1018.02 3198.8099999999995 1047.8 3169.9999999999995 1083 3169.9999999999995Z " fill-opacity="0" fill="#ffffff" stroke-dasharray="0" stroke-linejoin="round" stroke-linecap="round" stroke-opacity="1" stroke="#0f0f0f" stroke-miterlimit="50" stroke-width="2" clip-path="url(&quot;#SvgjsClipPath1207&quot;)" transform="matrix(1,0,0,1,-1012,-3164)"></path><path id="SvgjsPath1208" d="M1445.5 4349C1462.9 4349 1477 4363.1 1477 4380.5C1477 4397.9 1462.9 4412 1445.5 4412C1428.1 4412 1414 4397.9 1414 4380.5C1414 4363.1 1428.1 4349 1445.5 4349Z " fill="#ffffff" fill-opacity="0.04" filter="url(#SvgjsFilter1209)" transform="matrix(1,0,0,1,-1012,-3164)"></path><path id="SvgjsPath1211" d="M1445.5 4348C1462.9 4348 1477 4362.1 1477 4379.5C1477 4396.9 1462.9 4411 1445.5 4411C1428.1 4411 1414 4396.9 1414 4379.5C1414 4362.1 1428.1 4348 1445.5 4348Z " fill="#151515" transform="matrix(1,0,0,1,-1012,-3164)"></path><path id="SvgjsPath1212" d="M1445.5 4348C1462.9 4348 1477 4362.1 1477 4379.5C1477 4396.9 1462.9 4411 1445.5 4411C1428.1 4411 1414 4396.9 1414 4379.5C1414 4362.1 1428.1 4348 1445.5 4348Z " fill="#151515" transform="matrix(1,0,0,1,-1012,-3164)"></path><path id="SvgjsPath1213" d="M1445.5 4348C1462.9 4348 1477 4362.1 1477 4379.5C1477 4396.9 1462.9 4411 1445.5 4411C1428.1 4411 1414 4396.9 1414 4379.5C1414 4362.1 1428.1 4348 1445.5 4348Z " fill="url(#SvgjsLinearGradient1214)" transform="matrix(1,0,0,1,-1012,-3164)"></path><path id="SvgjsPath1217" d="M1440.17 4368.38L1451.75 4368.38C1454.95 4368.38 1457.54 4370.9800000000005 1457.54 4374.17L1457.54 4385.75C1457.54 4388.95 1454.95 4391.54 1451.75 4391.54L1440.17 4391.54C1436.98 4391.54 1434.38 4388.95 1434.38 4385.75L1434.38 4374.17C1434.38 4370.9800000000005 1436.98 4368.38 1440.17 4368.38ZM1436.7 4374.17L1436.7 4385.75C1436.7 4387.67 1438.25 4389.23 1440.17 4389.23L1451.75 4389.23C1453.67 4389.23 1455.23 4387.669999999999 1455.23 4385.75L1455.23 4374.17C1455.23 4372.25 1453.67 4370.7 1451.75 4370.7L1440.17 4370.7C1438.25 4370.7 1436.7 4372.25 1436.7 4374.17Z " fill="#fafafa" transform="matrix(1,0,0,1,-1012,-3164)"></path><path id="SvgjsPath1218" d="M1454 3230.5C1454 3235.19 1450.19 3239 1445.5 3239C1440.8 3239 1436.99 3235.19 1436.99 3230.5C1436.99 3225.81 1440.8 3222 1445.5 3222C1450.19 3222 1454 3225.81 1454 3230.5Z " fill="#5f5f5f" fill-opacity="0.15" filter="url(#SvgjsFilter1219)" transform="matrix(1,0,0,1,-1012,-3164)"></path><path id="SvgjsPath1221" d="M1454 3229.5C1454 3234.19 1450.19 3238 1445.5 3238C1440.8 3238 1436.99 3234.19 1436.99 3229.5C1436.99 3224.81 1440.8 3221 1445.5 3221C1450.19 3221 1454 3224.81 1454 3229.5Z " fill="#181819" transform="matrix(1,0,0,1,-1012,-3164)"></path><path id="SvgjsPath1222" d="M1454 3229.5C1454 3234.19 1450.19 3238 1445.5 3238C1440.8 3238 1436.99 3234.19 1436.99 3229.5C1436.99 3224.81 1440.8 3221 1445.5 3221C1450.19 3221 1454 3224.81 1454 3229.5Z " fill="#181819" transform="matrix(1,0,0,1,-1012,-3164)"></path><path id="SvgjsPath1223" d="M1454 3229.5C1454 3234.19 1450.19 3238 1445.5 3238C1440.8 3238 1436.99 3234.19 1436.99 3229.5C1436.99 3224.81 1440.8 3221 1445.5 3221C1450.19 3221 1454 3224.81 1454 3229.5Z " fill="url(#SvgjsLinearGradient1224)" transform="matrix(1,0,0,1,-1012,-3164)"></path><path id="SvgjsPath1227" d="M1449.79 3229.5C1449.79 3231.78 1447.94 3233.63 1445.6599999999999 3233.63C1443.3799999999999 3233.63 1441.5299999999997 3231.78 1441.5299999999997 3229.5C1441.5299999999997 3227.22 1443.3799999999997 3225.37 1445.6599999999999 3225.37C1447.9399999999998 3225.37 1449.79 3227.22 1449.79 3229.5Z " fill="#353542" transform="matrix(1,0,0,1,-1012,-3164)"></path><path id="SvgjsPath1228" d="M1447 3229.5C1447 3230.33 1446.33 3231 1445.5 3231C1444.67 3231 1444 3230.33 1444 3229.5C1444 3228.67 1444.67 3228 1445.5 3228C1446.33 3228 1447 3228.67 1447 3229.5Z " fill="#1e1e20" transform="matrix(1,0,0,1,-1012,-3164)"></path><path id="SvgjsPath1229" d="M1454 3230.5C1454 3235.19 1450.19 3239 1445.5 3239C1440.8 3239 1436.99 3235.19 1436.99 3230.5C1436.99 3225.81 1440.8 3222 1445.5 3222C1450.19 3222 1454 3225.81 1454 3230.5Z " fill="#5f5f5f" fill-opacity="0.15" filter="url(#SvgjsFilter1230)" transform="matrix(1,0,0,1,-1012,-3164)"></path><path id="SvgjsPath1232" d="M1454 3229.5C1454 3234.19 1450.19 3238 1445.5 3238C1440.8 3238 1436.99 3234.19 1436.99 3229.5C1436.99 3224.81 1440.8 3221 1445.5 3221C1450.19 3221 1454 3224.81 1454 3229.5Z " fill="#181819" transform="matrix(1,0,0,1,-1012,-3164)"></path><path id="SvgjsPath1233" d="M1454 3229.5C1454 3234.19 1450.19 3238 1445.5 3238C1440.8 3238 1436.99 3234.19 1436.99 3229.5C1436.99 3224.81 1440.8 3221 1445.5 3221C1450.19 3221 1454 3224.81 1454 3229.5Z " fill="#181819" transform="matrix(1,0,0,1,-1012,-3164)"></path><path id="SvgjsPath1234" d="M1454 3229.5C1454 3234.19 1450.19 3238 1445.5 3238C1440.8 3238 1436.99 3234.19 1436.99 3229.5C1436.99 3224.81 1440.8 3221 1445.5 3221C1450.19 3221 1454 3224.81 1454 3229.5Z " fill="url(#SvgjsLinearGradient1235)" transform="matrix(1,0,0,1,-1012,-3164)"></path><path id="SvgjsPath1238" d="M1449.79 3229.5C1449.79 3231.78 1447.94 3233.63 1445.6599999999999 3233.63C1443.3799999999999 3233.63 1441.5299999999997 3231.78 1441.5299999999997 3229.5C1441.5299999999997 3227.22 1443.3799999999997 3225.37 1445.6599999999999 3225.37C1447.9399999999998 3225.37 1449.79 3227.22 1449.79 3229.5Z " fill="#353542" transform="matrix(1,0,0,1,-1012,-3164)"></path><path id="SvgjsPath1239" d="M1447 3229.5C1447 3230.33 1446.33 3231 1445.5 3231C1444.67 3231 1444 3230.33 1444 3229.5C1444 3228.67 1444.67 3228 1445.5 3228C1446.33 3228 1447 3228.67 1447 3229.5Z " fill="#1e1e20" transform="matrix(1,0,0,1,-1012,-3164)"></path></svg>