<svg id="SvgjsSvg1050" xmlns="http://www.w3.org/2000/svg" version="1.1" xmlns:xlink="http://www.w3.org/1999/xlink" xmlns:svgjs="http://svgjs.com/svgjs" width="867" height="1285"><defs id="SvgjsDefs1051"><linearGradient id="SvgjsLinearGradient1054" gradientUnits="userSpaceOnUse" x1="1445.5" y1="4449" x2="1445.5" y2="3164"><stop id="SvgjsStop1055" stop-opacity="1" stop-color="#191919" offset="0"></stop><stop id="SvgjsStop1056" stop-opacity="1" stop-color="#262626" offset="1"></stop></linearGradient><clipPath id="SvgjsClipPath1060"><path id="SvgjsPath1059" d="M1017 4442L1017 3169L1874 3169L1874 4442ZM1083 3170C1047.8 3170 1018.02 3198.81 1018.02 3233.97L1018.02 4377.65C1018.02 4412.8099999999995 1046.8 4441 1082 4441L1809 4441C1844.2 4441 1872.02 4412.81 1872.02 4377.65L1872.02 3233.9699999999993C1872.02 3198.8099999999995 1844.2 3169.9999999999995 1809 3169.9999999999995Z " fill="#ffffff"></path></clipPath><filter id="SvgjsFilter1062" width="200%" height="200%" x="-50%" y="-50%"><feGaussianBlur id="SvgjsFeGaussianBlur1063" stdDeviation="0 " result="SvgjsFeGaussianBlur1063Out" in="SourceGraphic"></feGaussianBlur></filter><linearGradient id="SvgjsLinearGradient1067" gradientUnits="userSpaceOnUse" x1="1445.5" y1="4431.645793" x2="1445.5" y2="4368.645793"><stop id="SvgjsStop1068" stop-opacity="0.47" stop-color="#353434" offset="0"></stop><stop id="SvgjsStop1069" stop-opacity="0.47" stop-color="#1d1d1d" offset="1"></stop></linearGradient><filter id="SvgjsFilter1072" width="200%" height="200%" x="-50%" y="-50%"><feGaussianBlur id="SvgjsFeGaussianBlur1073" stdDeviation="0 " result="SvgjsFeGaussianBlur1073Out" in="SourceGraphic"></feGaussianBlur></filter><linearGradient id="SvgjsLinearGradient1077" gradientUnits="userSpaceOnUse" x1="1445.5" y1="4431.645793" x2="1445.5" y2="4368.645793"><stop id="SvgjsStop1078" stop-opacity="0.47" stop-color="#353434" offset="0"></stop><stop id="SvgjsStop1079" stop-opacity="0.47" stop-color="#1d1d1d" offset="1"></stop></linearGradient><linearGradient id="SvgjsLinearGradient1083" gradientUnits="userSpaceOnUse" x1="1445.5" y1="4449" x2="1445.5" y2="3164"><stop id="SvgjsStop1084" stop-opacity="1" stop-color="#191919" offset="0"></stop><stop id="SvgjsStop1085" stop-opacity="1" stop-color="#262626" offset="1"></stop></linearGradient><clipPath id="SvgjsClipPath1089"><path id="SvgjsPath1088" d="M1017 4442L1017 3169L1874 3169L1874 4442ZM1083 3170C1047.8 3170 1018.02 3198.81 1018.02 3233.97L1018.02 4377.65C1018.02 4412.8099999999995 1046.8 4441 1082 4441L1809 4441C1844.2 4441 1872.02 4412.81 1872.02 4377.65L1872.02 3233.9699999999993C1872.02 3198.8099999999995 1844.2 3169.9999999999995 1809 3169.9999999999995Z " fill="#ffffff"></path></clipPath><filter id="SvgjsFilter1091" width="200%" height="200%" x="-50%" y="-50%"><feGaussianBlur id="SvgjsFeGaussianBlur1092" stdDeviation="0 " result="SvgjsFeGaussianBlur1092Out" in="SourceGraphic"></feGaussianBlur></filter><linearGradient id="SvgjsLinearGradient1096" gradientUnits="userSpaceOnUse" x1="1445.5" y1="4431.645793" x2="1445.5" y2="4368.645793"><stop id="SvgjsStop1097" stop-opacity="0.47" stop-color="#353434" offset="0"></stop><stop id="SvgjsStop1098" stop-opacity="0.47" stop-color="#1d1d1d" offset="1"></stop></linearGradient></defs><path id="SvgjsPath1052" d="M1080.21 3164L1810.79 3164C1848.46 3164 1879 3194.49 1879 3232.1L1879 4380.9C1879 4418.509999999999 1848.46 4449 1810.79 4449L1080.21 4449C1042.54 4449 1012 4418.51 1012 4380.9L1012 3232.0999999999995C1012 3194.4899999999993 1042.54 3163.9999999999995 1080.21 3163.9999999999995Z " fill="#1d1d1d" transform="matrix(1,0,0,1,-1012,-3164)"></path><path id="SvgjsPath1053" d="M1080.21 3164L1810.79 3164C1848.46 3164 1879 3194.49 1879 3232.1L1879 4380.9C1879 4418.509999999999 1848.46 4449 1810.79 4449L1080.21 4449C1042.54 4449 1012 4418.51 1012 4380.9L1012 3232.0999999999995C1012 3194.4899999999993 1042.54 3163.9999999999995 1080.21 3163.9999999999995Z " fill="url(#SvgjsLinearGradient1054)" transform="matrix(1,0,0,1,-1012,-3164)"></path><path id="SvgjsPath1057" d="M1083 3170L1809 3170C1844.2 3170 1872.02 3198.81 1872.02 3233.97L1872.02 4377.65C1872.02 4412.8099999999995 1844.2 4441 1809 4441L1082 4441C1046.8 4441 1018.02 4412.81 1018.02 4377.65L1018.02 3233.9699999999993C1018.02 3198.8099999999995 1047.8 3169.9999999999995 1083 3169.9999999999995Z " fill="#1d1d1d" transform="matrix(1,0,0,1,-1012,-3164)"></path><path id="SvgjsPath1058" d="M1083 3170L1809 3170C1844.2 3170 1872.02 3198.81 1872.02 3233.97L1872.02 4377.65C1872.02 4412.8099999999995 1844.2 4441 1809 4441L1082 4441C1046.8 4441 1018.02 4412.81 1018.02 4377.65L1018.02 3233.9699999999993C1018.02 3198.8099999999995 1047.8 3169.9999999999995 1083 3169.9999999999995Z " fill-opacity="0" fill="#ffffff" stroke-dasharray="0" stroke-linejoin="round" stroke-linecap="round" stroke-opacity="1" stroke="#0f0f0f" stroke-miterlimit="50" stroke-width="2" clip-path="url(&quot;#SvgjsClipPath1060&quot;)" transform="matrix(1,0,0,1,-1012,-3164)"></path><path id="SvgjsPath1061" d="M1445.5 4349C1462.9 4349 1477 4363.1 1477 4380.5C1477 4397.9 1462.9 4412 1445.5 4412C1428.1 4412 1414 4397.9 1414 4380.5C1414 4363.1 1428.1 4349 1445.5 4349Z " fill="#ffffff" fill-opacity="0.04" filter="url(#SvgjsFilter1062)" transform="matrix(1,0,0,1,-1012,-3164)"></path><path id="SvgjsPath1064" d="M1445.5 4348C1462.9 4348 1477 4362.1 1477 4379.5C1477 4396.9 1462.9 4411 1445.5 4411C1428.1 4411 1414 4396.9 1414 4379.5C1414 4362.1 1428.1 4348 1445.5 4348Z " fill="#151515" transform="matrix(1,0,0,1,-1012,-3164)"></path><path id="SvgjsPath1065" d="M1445.5 4348C1462.9 4348 1477 4362.1 1477 4379.5C1477 4396.9 1462.9 4411 1445.5 4411C1428.1 4411 1414 4396.9 1414 4379.5C1414 4362.1 1428.1 4348 1445.5 4348Z " fill="#151515" transform="matrix(1,0,0,1,-1012,-3164)"></path><path id="SvgjsPath1066" d="M1445.5 4348C1462.9 4348 1477 4362.1 1477 4379.5C1477 4396.9 1462.9 4411 1445.5 4411C1428.1 4411 1414 4396.9 1414 4379.5C1414 4362.1 1428.1 4348 1445.5 4348Z " fill="url(#SvgjsLinearGradient1067)" transform="matrix(1,0,0,1,-1012,-3164)"></path><path id="SvgjsPath1070" d="M1440.17 4368.38L1451.75 4368.38C1454.95 4368.38 1457.54 4370.9800000000005 1457.54 4374.17L1457.54 4385.75C1457.54 4388.95 1454.95 4391.54 1451.75 4391.54L1440.17 4391.54C1436.98 4391.54 1434.38 4388.95 1434.38 4385.75L1434.38 4374.17C1434.38 4370.9800000000005 1436.98 4368.38 1440.17 4368.38ZM1436.7 4374.17L1436.7 4385.75C1436.7 4387.67 1438.25 4389.23 1440.17 4389.23L1451.75 4389.23C1453.67 4389.23 1455.23 4387.669999999999 1455.23 4385.75L1455.23 4374.17C1455.23 4372.25 1453.67 4370.7 1451.75 4370.7L1440.17 4370.7C1438.25 4370.7 1436.7 4372.25 1436.7 4374.17Z " fill="#fafafa" transform="matrix(1,0,0,1,-1012,-3164)"></path><path id="SvgjsPath1071" d="M1445.5 4349C1462.9 4349 1477 4363.1 1477 4380.5C1477 4397.9 1462.9 4412 1445.5 4412C1428.1 4412 1414 4397.9 1414 4380.5C1414 4363.1 1428.1 4349 1445.5 4349Z " fill="#ffffff" fill-opacity="0.04" filter="url(#SvgjsFilter1072)" transform="matrix(1,0,0,1,-1012,-3164)"></path><path id="SvgjsPath1074" d="M1445.5 4348C1462.9 4348 1477 4362.1 1477 4379.5C1477 4396.9 1462.9 4411 1445.5 4411C1428.1 4411 1414 4396.9 1414 4379.5C1414 4362.1 1428.1 4348 1445.5 4348Z " fill="#151515" transform="matrix(1,0,0,1,-1012,-3164)"></path><path id="SvgjsPath1075" d="M1445.5 4348C1462.9 4348 1477 4362.1 1477 4379.5C1477 4396.9 1462.9 4411 1445.5 4411C1428.1 4411 1414 4396.9 1414 4379.5C1414 4362.1 1428.1 4348 1445.5 4348Z " fill="#151515" transform="matrix(1,0,0,1,-1012,-3164)"></path><path id="SvgjsPath1076" d="M1445.5 4348C1462.9 4348 1477 4362.1 1477 4379.5C1477 4396.9 1462.9 4411 1445.5 4411C1428.1 4411 1414 4396.9 1414 4379.5C1414 4362.1 1428.1 4348 1445.5 4348Z " fill="url(#SvgjsLinearGradient1077)" transform="matrix(1,0,0,1,-1012,-3164)"></path><path id="SvgjsPath1080" d="M1440.17 4368.38L1451.75 4368.38C1454.95 4368.38 1457.54 4370.9800000000005 1457.54 4374.17L1457.54 4385.75C1457.54 4388.95 1454.95 4391.54 1451.75 4391.54L1440.17 4391.54C1436.98 4391.54 1434.38 4388.95 1434.38 4385.75L1434.38 4374.17C1434.38 4370.9800000000005 1436.98 4368.38 1440.17 4368.38ZM1436.7 4374.17L1436.7 4385.75C1436.7 4387.67 1438.25 4389.23 1440.17 4389.23L1451.75 4389.23C1453.67 4389.23 1455.23 4387.669999999999 1455.23 4385.75L1455.23 4374.17C1455.23 4372.25 1453.67 4370.7 1451.75 4370.7L1440.17 4370.7C1438.25 4370.7 1436.7 4372.25 1436.7 4374.17Z " fill="#fafafa" transform="matrix(1,0,0,1,-1012,-3164)"></path><path id="SvgjsPath1081" d="M1080.21 3164L1810.79 3164C1848.46 3164 1879 3194.49 1879 3232.1L1879 4380.9C1879 4418.509999999999 1848.46 4449 1810.79 4449L1080.21 4449C1042.54 4449 1012 4418.51 1012 4380.9L1012 3232.0999999999995C1012 3194.4899999999993 1042.54 3163.9999999999995 1080.21 3163.9999999999995Z " fill="#1d1d1d" transform="matrix(1,0,0,1,-1012,-3164)"></path><path id="SvgjsPath1082" d="M1080.21 3164L1810.79 3164C1848.46 3164 1879 3194.49 1879 3232.1L1879 4380.9C1879 4418.509999999999 1848.46 4449 1810.79 4449L1080.21 4449C1042.54 4449 1012 4418.51 1012 4380.9L1012 3232.0999999999995C1012 3194.4899999999993 1042.54 3163.9999999999995 1080.21 3163.9999999999995Z " fill="url(#SvgjsLinearGradient1083)" transform="matrix(1,0,0,1,-1012,-3164)"></path><path id="SvgjsPath1086" d="M1083 3170L1809 3170C1844.2 3170 1872.02 3198.81 1872.02 3233.97L1872.02 4377.65C1872.02 4412.8099999999995 1844.2 4441 1809 4441L1082 4441C1046.8 4441 1018.02 4412.81 1018.02 4377.65L1018.02 3233.9699999999993C1018.02 3198.8099999999995 1047.8 3169.9999999999995 1083 3169.9999999999995Z " fill="#1d1d1d" transform="matrix(1,0,0,1,-1012,-3164)"></path><path id="SvgjsPath1087" d="M1083 3170L1809 3170C1844.2 3170 1872.02 3198.81 1872.02 3233.97L1872.02 4377.65C1872.02 4412.8099999999995 1844.2 4441 1809 4441L1082 4441C1046.8 4441 1018.02 4412.81 1018.02 4377.65L1018.02 3233.9699999999993C1018.02 3198.8099999999995 1047.8 3169.9999999999995 1083 3169.9999999999995Z " fill-opacity="0" fill="#ffffff" stroke-dasharray="0" stroke-linejoin="round" stroke-linecap="round" stroke-opacity="1" stroke="#0f0f0f" stroke-miterlimit="50" stroke-width="2" clip-path="url(&quot;#SvgjsClipPath1089&quot;)" transform="matrix(1,0,0,1,-1012,-3164)"></path><path id="SvgjsPath1090" d="M1445.5 4349C1462.9 4349 1477 4363.1 1477 4380.5C1477 4397.9 1462.9 4412 1445.5 4412C1428.1 4412 1414 4397.9 1414 4380.5C1414 4363.1 1428.1 4349 1445.5 4349Z " fill="#ffffff" fill-opacity="0.04" filter="url(#SvgjsFilter1091)" transform="matrix(1,0,0,1,-1012,-3164)"></path><path id="SvgjsPath1093" d="M1445.5 4348C1462.9 4348 1477 4362.1 1477 4379.5C1477 4396.9 1462.9 4411 1445.5 4411C1428.1 4411 1414 4396.9 1414 4379.5C1414 4362.1 1428.1 4348 1445.5 4348Z " fill="#151515" transform="matrix(1,0,0,1,-1012,-3164)"></path><path id="SvgjsPath1094" d="M1445.5 4348C1462.9 4348 1477 4362.1 1477 4379.5C1477 4396.9 1462.9 4411 1445.5 4411C1428.1 4411 1414 4396.9 1414 4379.5C1414 4362.1 1428.1 4348 1445.5 4348Z " fill="#151515" transform="matrix(1,0,0,1,-1012,-3164)"></path><path id="SvgjsPath1095" d="M1445.5 4348C1462.9 4348 1477 4362.1 1477 4379.5C1477 4396.9 1462.9 4411 1445.5 4411C1428.1 4411 1414 4396.9 1414 4379.5C1414 4362.1 1428.1 4348 1445.5 4348Z " fill="url(#SvgjsLinearGradient1096)" transform="matrix(1,0,0,1,-1012,-3164)"></path><path id="SvgjsPath1099" d="M1440.17 4368.38L1451.75 4368.38C1454.95 4368.38 1457.54 4370.9800000000005 1457.54 4374.17L1457.54 4385.75C1457.54 4388.95 1454.95 4391.54 1451.75 4391.54L1440.17 4391.54C1436.98 4391.54 1434.38 4388.95 1434.38 4385.75L1434.38 4374.17C1434.38 4370.9800000000005 1436.98 4368.38 1440.17 4368.38ZM1436.7 4374.17L1436.7 4385.75C1436.7 4387.67 1438.25 4389.23 1440.17 4389.23L1451.75 4389.23C1453.67 4389.23 1455.23 4387.669999999999 1455.23 4385.75L1455.23 4374.17C1455.23 4372.25 1453.67 4370.7 1451.75 4370.7L1440.17 4370.7C1438.25 4370.7 1436.7 4372.25 1436.7 4374.17Z " fill="#fafafa" transform="matrix(1,0,0,1,-1012,-3164)"></path></svg>